G75*
%MOIN*%
%OFA0B0*%
%FSLAX25Y25*%
%IPPOS*%
%LPD*%
%AMOC8*
5,1,8,0,0,1.08239X$1,22.5*
%
%ADD10C,0.00000*%
%ADD11C,0.00600*%
D10*
X0008584Y0005255D02*
X0007584Y0171031D01*
X0269321Y0168716D01*
X0271580Y0005125D01*
X0008584Y0005255D01*
X0016285Y0156755D02*
X0016287Y0156913D01*
X0016293Y0157071D01*
X0016303Y0157229D01*
X0016317Y0157387D01*
X0016335Y0157544D01*
X0016356Y0157701D01*
X0016382Y0157857D01*
X0016412Y0158013D01*
X0016445Y0158168D01*
X0016483Y0158321D01*
X0016524Y0158474D01*
X0016569Y0158626D01*
X0016618Y0158777D01*
X0016671Y0158926D01*
X0016727Y0159074D01*
X0016787Y0159220D01*
X0016851Y0159365D01*
X0016919Y0159508D01*
X0016990Y0159650D01*
X0017064Y0159790D01*
X0017142Y0159927D01*
X0017224Y0160063D01*
X0017308Y0160197D01*
X0017397Y0160328D01*
X0017488Y0160457D01*
X0017583Y0160584D01*
X0017680Y0160709D01*
X0017781Y0160831D01*
X0017885Y0160950D01*
X0017992Y0161067D01*
X0018102Y0161181D01*
X0018215Y0161292D01*
X0018330Y0161401D01*
X0018448Y0161506D01*
X0018569Y0161608D01*
X0018692Y0161708D01*
X0018818Y0161804D01*
X0018946Y0161897D01*
X0019076Y0161987D01*
X0019209Y0162073D01*
X0019344Y0162157D01*
X0019480Y0162236D01*
X0019619Y0162313D01*
X0019760Y0162385D01*
X0019902Y0162455D01*
X0020046Y0162520D01*
X0020192Y0162582D01*
X0020339Y0162640D01*
X0020488Y0162695D01*
X0020638Y0162746D01*
X0020789Y0162793D01*
X0020941Y0162836D01*
X0021094Y0162875D01*
X0021249Y0162911D01*
X0021404Y0162942D01*
X0021560Y0162970D01*
X0021716Y0162994D01*
X0021873Y0163014D01*
X0022031Y0163030D01*
X0022188Y0163042D01*
X0022347Y0163050D01*
X0022505Y0163054D01*
X0022663Y0163054D01*
X0022821Y0163050D01*
X0022980Y0163042D01*
X0023137Y0163030D01*
X0023295Y0163014D01*
X0023452Y0162994D01*
X0023608Y0162970D01*
X0023764Y0162942D01*
X0023919Y0162911D01*
X0024074Y0162875D01*
X0024227Y0162836D01*
X0024379Y0162793D01*
X0024530Y0162746D01*
X0024680Y0162695D01*
X0024829Y0162640D01*
X0024976Y0162582D01*
X0025122Y0162520D01*
X0025266Y0162455D01*
X0025408Y0162385D01*
X0025549Y0162313D01*
X0025688Y0162236D01*
X0025824Y0162157D01*
X0025959Y0162073D01*
X0026092Y0161987D01*
X0026222Y0161897D01*
X0026350Y0161804D01*
X0026476Y0161708D01*
X0026599Y0161608D01*
X0026720Y0161506D01*
X0026838Y0161401D01*
X0026953Y0161292D01*
X0027066Y0161181D01*
X0027176Y0161067D01*
X0027283Y0160950D01*
X0027387Y0160831D01*
X0027488Y0160709D01*
X0027585Y0160584D01*
X0027680Y0160457D01*
X0027771Y0160328D01*
X0027860Y0160197D01*
X0027944Y0160063D01*
X0028026Y0159927D01*
X0028104Y0159790D01*
X0028178Y0159650D01*
X0028249Y0159508D01*
X0028317Y0159365D01*
X0028381Y0159220D01*
X0028441Y0159074D01*
X0028497Y0158926D01*
X0028550Y0158777D01*
X0028599Y0158626D01*
X0028644Y0158474D01*
X0028685Y0158321D01*
X0028723Y0158168D01*
X0028756Y0158013D01*
X0028786Y0157857D01*
X0028812Y0157701D01*
X0028833Y0157544D01*
X0028851Y0157387D01*
X0028865Y0157229D01*
X0028875Y0157071D01*
X0028881Y0156913D01*
X0028883Y0156755D01*
X0028881Y0156597D01*
X0028875Y0156439D01*
X0028865Y0156281D01*
X0028851Y0156123D01*
X0028833Y0155966D01*
X0028812Y0155809D01*
X0028786Y0155653D01*
X0028756Y0155497D01*
X0028723Y0155342D01*
X0028685Y0155189D01*
X0028644Y0155036D01*
X0028599Y0154884D01*
X0028550Y0154733D01*
X0028497Y0154584D01*
X0028441Y0154436D01*
X0028381Y0154290D01*
X0028317Y0154145D01*
X0028249Y0154002D01*
X0028178Y0153860D01*
X0028104Y0153720D01*
X0028026Y0153583D01*
X0027944Y0153447D01*
X0027860Y0153313D01*
X0027771Y0153182D01*
X0027680Y0153053D01*
X0027585Y0152926D01*
X0027488Y0152801D01*
X0027387Y0152679D01*
X0027283Y0152560D01*
X0027176Y0152443D01*
X0027066Y0152329D01*
X0026953Y0152218D01*
X0026838Y0152109D01*
X0026720Y0152004D01*
X0026599Y0151902D01*
X0026476Y0151802D01*
X0026350Y0151706D01*
X0026222Y0151613D01*
X0026092Y0151523D01*
X0025959Y0151437D01*
X0025824Y0151353D01*
X0025688Y0151274D01*
X0025549Y0151197D01*
X0025408Y0151125D01*
X0025266Y0151055D01*
X0025122Y0150990D01*
X0024976Y0150928D01*
X0024829Y0150870D01*
X0024680Y0150815D01*
X0024530Y0150764D01*
X0024379Y0150717D01*
X0024227Y0150674D01*
X0024074Y0150635D01*
X0023919Y0150599D01*
X0023764Y0150568D01*
X0023608Y0150540D01*
X0023452Y0150516D01*
X0023295Y0150496D01*
X0023137Y0150480D01*
X0022980Y0150468D01*
X0022821Y0150460D01*
X0022663Y0150456D01*
X0022505Y0150456D01*
X0022347Y0150460D01*
X0022188Y0150468D01*
X0022031Y0150480D01*
X0021873Y0150496D01*
X0021716Y0150516D01*
X0021560Y0150540D01*
X0021404Y0150568D01*
X0021249Y0150599D01*
X0021094Y0150635D01*
X0020941Y0150674D01*
X0020789Y0150717D01*
X0020638Y0150764D01*
X0020488Y0150815D01*
X0020339Y0150870D01*
X0020192Y0150928D01*
X0020046Y0150990D01*
X0019902Y0151055D01*
X0019760Y0151125D01*
X0019619Y0151197D01*
X0019480Y0151274D01*
X0019344Y0151353D01*
X0019209Y0151437D01*
X0019076Y0151523D01*
X0018946Y0151613D01*
X0018818Y0151706D01*
X0018692Y0151802D01*
X0018569Y0151902D01*
X0018448Y0152004D01*
X0018330Y0152109D01*
X0018215Y0152218D01*
X0018102Y0152329D01*
X0017992Y0152443D01*
X0017885Y0152560D01*
X0017781Y0152679D01*
X0017680Y0152801D01*
X0017583Y0152926D01*
X0017488Y0153053D01*
X0017397Y0153182D01*
X0017308Y0153313D01*
X0017224Y0153447D01*
X0017142Y0153583D01*
X0017064Y0153720D01*
X0016990Y0153860D01*
X0016919Y0154002D01*
X0016851Y0154145D01*
X0016787Y0154290D01*
X0016727Y0154436D01*
X0016671Y0154584D01*
X0016618Y0154733D01*
X0016569Y0154884D01*
X0016524Y0155036D01*
X0016483Y0155189D01*
X0016445Y0155342D01*
X0016412Y0155497D01*
X0016382Y0155653D01*
X0016356Y0155809D01*
X0016335Y0155966D01*
X0016317Y0156123D01*
X0016303Y0156281D01*
X0016293Y0156439D01*
X0016287Y0156597D01*
X0016285Y0156755D01*
X0253285Y0016755D02*
X0253287Y0016913D01*
X0253293Y0017071D01*
X0253303Y0017229D01*
X0253317Y0017387D01*
X0253335Y0017544D01*
X0253356Y0017701D01*
X0253382Y0017857D01*
X0253412Y0018013D01*
X0253445Y0018168D01*
X0253483Y0018321D01*
X0253524Y0018474D01*
X0253569Y0018626D01*
X0253618Y0018777D01*
X0253671Y0018926D01*
X0253727Y0019074D01*
X0253787Y0019220D01*
X0253851Y0019365D01*
X0253919Y0019508D01*
X0253990Y0019650D01*
X0254064Y0019790D01*
X0254142Y0019927D01*
X0254224Y0020063D01*
X0254308Y0020197D01*
X0254397Y0020328D01*
X0254488Y0020457D01*
X0254583Y0020584D01*
X0254680Y0020709D01*
X0254781Y0020831D01*
X0254885Y0020950D01*
X0254992Y0021067D01*
X0255102Y0021181D01*
X0255215Y0021292D01*
X0255330Y0021401D01*
X0255448Y0021506D01*
X0255569Y0021608D01*
X0255692Y0021708D01*
X0255818Y0021804D01*
X0255946Y0021897D01*
X0256076Y0021987D01*
X0256209Y0022073D01*
X0256344Y0022157D01*
X0256480Y0022236D01*
X0256619Y0022313D01*
X0256760Y0022385D01*
X0256902Y0022455D01*
X0257046Y0022520D01*
X0257192Y0022582D01*
X0257339Y0022640D01*
X0257488Y0022695D01*
X0257638Y0022746D01*
X0257789Y0022793D01*
X0257941Y0022836D01*
X0258094Y0022875D01*
X0258249Y0022911D01*
X0258404Y0022942D01*
X0258560Y0022970D01*
X0258716Y0022994D01*
X0258873Y0023014D01*
X0259031Y0023030D01*
X0259188Y0023042D01*
X0259347Y0023050D01*
X0259505Y0023054D01*
X0259663Y0023054D01*
X0259821Y0023050D01*
X0259980Y0023042D01*
X0260137Y0023030D01*
X0260295Y0023014D01*
X0260452Y0022994D01*
X0260608Y0022970D01*
X0260764Y0022942D01*
X0260919Y0022911D01*
X0261074Y0022875D01*
X0261227Y0022836D01*
X0261379Y0022793D01*
X0261530Y0022746D01*
X0261680Y0022695D01*
X0261829Y0022640D01*
X0261976Y0022582D01*
X0262122Y0022520D01*
X0262266Y0022455D01*
X0262408Y0022385D01*
X0262549Y0022313D01*
X0262688Y0022236D01*
X0262824Y0022157D01*
X0262959Y0022073D01*
X0263092Y0021987D01*
X0263222Y0021897D01*
X0263350Y0021804D01*
X0263476Y0021708D01*
X0263599Y0021608D01*
X0263720Y0021506D01*
X0263838Y0021401D01*
X0263953Y0021292D01*
X0264066Y0021181D01*
X0264176Y0021067D01*
X0264283Y0020950D01*
X0264387Y0020831D01*
X0264488Y0020709D01*
X0264585Y0020584D01*
X0264680Y0020457D01*
X0264771Y0020328D01*
X0264860Y0020197D01*
X0264944Y0020063D01*
X0265026Y0019927D01*
X0265104Y0019790D01*
X0265178Y0019650D01*
X0265249Y0019508D01*
X0265317Y0019365D01*
X0265381Y0019220D01*
X0265441Y0019074D01*
X0265497Y0018926D01*
X0265550Y0018777D01*
X0265599Y0018626D01*
X0265644Y0018474D01*
X0265685Y0018321D01*
X0265723Y0018168D01*
X0265756Y0018013D01*
X0265786Y0017857D01*
X0265812Y0017701D01*
X0265833Y0017544D01*
X0265851Y0017387D01*
X0265865Y0017229D01*
X0265875Y0017071D01*
X0265881Y0016913D01*
X0265883Y0016755D01*
X0265881Y0016597D01*
X0265875Y0016439D01*
X0265865Y0016281D01*
X0265851Y0016123D01*
X0265833Y0015966D01*
X0265812Y0015809D01*
X0265786Y0015653D01*
X0265756Y0015497D01*
X0265723Y0015342D01*
X0265685Y0015189D01*
X0265644Y0015036D01*
X0265599Y0014884D01*
X0265550Y0014733D01*
X0265497Y0014584D01*
X0265441Y0014436D01*
X0265381Y0014290D01*
X0265317Y0014145D01*
X0265249Y0014002D01*
X0265178Y0013860D01*
X0265104Y0013720D01*
X0265026Y0013583D01*
X0264944Y0013447D01*
X0264860Y0013313D01*
X0264771Y0013182D01*
X0264680Y0013053D01*
X0264585Y0012926D01*
X0264488Y0012801D01*
X0264387Y0012679D01*
X0264283Y0012560D01*
X0264176Y0012443D01*
X0264066Y0012329D01*
X0263953Y0012218D01*
X0263838Y0012109D01*
X0263720Y0012004D01*
X0263599Y0011902D01*
X0263476Y0011802D01*
X0263350Y0011706D01*
X0263222Y0011613D01*
X0263092Y0011523D01*
X0262959Y0011437D01*
X0262824Y0011353D01*
X0262688Y0011274D01*
X0262549Y0011197D01*
X0262408Y0011125D01*
X0262266Y0011055D01*
X0262122Y0010990D01*
X0261976Y0010928D01*
X0261829Y0010870D01*
X0261680Y0010815D01*
X0261530Y0010764D01*
X0261379Y0010717D01*
X0261227Y0010674D01*
X0261074Y0010635D01*
X0260919Y0010599D01*
X0260764Y0010568D01*
X0260608Y0010540D01*
X0260452Y0010516D01*
X0260295Y0010496D01*
X0260137Y0010480D01*
X0259980Y0010468D01*
X0259821Y0010460D01*
X0259663Y0010456D01*
X0259505Y0010456D01*
X0259347Y0010460D01*
X0259188Y0010468D01*
X0259031Y0010480D01*
X0258873Y0010496D01*
X0258716Y0010516D01*
X0258560Y0010540D01*
X0258404Y0010568D01*
X0258249Y0010599D01*
X0258094Y0010635D01*
X0257941Y0010674D01*
X0257789Y0010717D01*
X0257638Y0010764D01*
X0257488Y0010815D01*
X0257339Y0010870D01*
X0257192Y0010928D01*
X0257046Y0010990D01*
X0256902Y0011055D01*
X0256760Y0011125D01*
X0256619Y0011197D01*
X0256480Y0011274D01*
X0256344Y0011353D01*
X0256209Y0011437D01*
X0256076Y0011523D01*
X0255946Y0011613D01*
X0255818Y0011706D01*
X0255692Y0011802D01*
X0255569Y0011902D01*
X0255448Y0012004D01*
X0255330Y0012109D01*
X0255215Y0012218D01*
X0255102Y0012329D01*
X0254992Y0012443D01*
X0254885Y0012560D01*
X0254781Y0012679D01*
X0254680Y0012801D01*
X0254583Y0012926D01*
X0254488Y0013053D01*
X0254397Y0013182D01*
X0254308Y0013313D01*
X0254224Y0013447D01*
X0254142Y0013583D01*
X0254064Y0013720D01*
X0253990Y0013860D01*
X0253919Y0014002D01*
X0253851Y0014145D01*
X0253787Y0014290D01*
X0253727Y0014436D01*
X0253671Y0014584D01*
X0253618Y0014733D01*
X0253569Y0014884D01*
X0253524Y0015036D01*
X0253483Y0015189D01*
X0253445Y0015342D01*
X0253412Y0015497D01*
X0253382Y0015653D01*
X0253356Y0015809D01*
X0253335Y0015966D01*
X0253317Y0016123D01*
X0253303Y0016281D01*
X0253293Y0016439D01*
X0253287Y0016597D01*
X0253285Y0016755D01*
X0253785Y0154255D02*
X0253787Y0154413D01*
X0253793Y0154571D01*
X0253803Y0154729D01*
X0253817Y0154887D01*
X0253835Y0155044D01*
X0253856Y0155201D01*
X0253882Y0155357D01*
X0253912Y0155513D01*
X0253945Y0155668D01*
X0253983Y0155821D01*
X0254024Y0155974D01*
X0254069Y0156126D01*
X0254118Y0156277D01*
X0254171Y0156426D01*
X0254227Y0156574D01*
X0254287Y0156720D01*
X0254351Y0156865D01*
X0254419Y0157008D01*
X0254490Y0157150D01*
X0254564Y0157290D01*
X0254642Y0157427D01*
X0254724Y0157563D01*
X0254808Y0157697D01*
X0254897Y0157828D01*
X0254988Y0157957D01*
X0255083Y0158084D01*
X0255180Y0158209D01*
X0255281Y0158331D01*
X0255385Y0158450D01*
X0255492Y0158567D01*
X0255602Y0158681D01*
X0255715Y0158792D01*
X0255830Y0158901D01*
X0255948Y0159006D01*
X0256069Y0159108D01*
X0256192Y0159208D01*
X0256318Y0159304D01*
X0256446Y0159397D01*
X0256576Y0159487D01*
X0256709Y0159573D01*
X0256844Y0159657D01*
X0256980Y0159736D01*
X0257119Y0159813D01*
X0257260Y0159885D01*
X0257402Y0159955D01*
X0257546Y0160020D01*
X0257692Y0160082D01*
X0257839Y0160140D01*
X0257988Y0160195D01*
X0258138Y0160246D01*
X0258289Y0160293D01*
X0258441Y0160336D01*
X0258594Y0160375D01*
X0258749Y0160411D01*
X0258904Y0160442D01*
X0259060Y0160470D01*
X0259216Y0160494D01*
X0259373Y0160514D01*
X0259531Y0160530D01*
X0259688Y0160542D01*
X0259847Y0160550D01*
X0260005Y0160554D01*
X0260163Y0160554D01*
X0260321Y0160550D01*
X0260480Y0160542D01*
X0260637Y0160530D01*
X0260795Y0160514D01*
X0260952Y0160494D01*
X0261108Y0160470D01*
X0261264Y0160442D01*
X0261419Y0160411D01*
X0261574Y0160375D01*
X0261727Y0160336D01*
X0261879Y0160293D01*
X0262030Y0160246D01*
X0262180Y0160195D01*
X0262329Y0160140D01*
X0262476Y0160082D01*
X0262622Y0160020D01*
X0262766Y0159955D01*
X0262908Y0159885D01*
X0263049Y0159813D01*
X0263188Y0159736D01*
X0263324Y0159657D01*
X0263459Y0159573D01*
X0263592Y0159487D01*
X0263722Y0159397D01*
X0263850Y0159304D01*
X0263976Y0159208D01*
X0264099Y0159108D01*
X0264220Y0159006D01*
X0264338Y0158901D01*
X0264453Y0158792D01*
X0264566Y0158681D01*
X0264676Y0158567D01*
X0264783Y0158450D01*
X0264887Y0158331D01*
X0264988Y0158209D01*
X0265085Y0158084D01*
X0265180Y0157957D01*
X0265271Y0157828D01*
X0265360Y0157697D01*
X0265444Y0157563D01*
X0265526Y0157427D01*
X0265604Y0157290D01*
X0265678Y0157150D01*
X0265749Y0157008D01*
X0265817Y0156865D01*
X0265881Y0156720D01*
X0265941Y0156574D01*
X0265997Y0156426D01*
X0266050Y0156277D01*
X0266099Y0156126D01*
X0266144Y0155974D01*
X0266185Y0155821D01*
X0266223Y0155668D01*
X0266256Y0155513D01*
X0266286Y0155357D01*
X0266312Y0155201D01*
X0266333Y0155044D01*
X0266351Y0154887D01*
X0266365Y0154729D01*
X0266375Y0154571D01*
X0266381Y0154413D01*
X0266383Y0154255D01*
X0266381Y0154097D01*
X0266375Y0153939D01*
X0266365Y0153781D01*
X0266351Y0153623D01*
X0266333Y0153466D01*
X0266312Y0153309D01*
X0266286Y0153153D01*
X0266256Y0152997D01*
X0266223Y0152842D01*
X0266185Y0152689D01*
X0266144Y0152536D01*
X0266099Y0152384D01*
X0266050Y0152233D01*
X0265997Y0152084D01*
X0265941Y0151936D01*
X0265881Y0151790D01*
X0265817Y0151645D01*
X0265749Y0151502D01*
X0265678Y0151360D01*
X0265604Y0151220D01*
X0265526Y0151083D01*
X0265444Y0150947D01*
X0265360Y0150813D01*
X0265271Y0150682D01*
X0265180Y0150553D01*
X0265085Y0150426D01*
X0264988Y0150301D01*
X0264887Y0150179D01*
X0264783Y0150060D01*
X0264676Y0149943D01*
X0264566Y0149829D01*
X0264453Y0149718D01*
X0264338Y0149609D01*
X0264220Y0149504D01*
X0264099Y0149402D01*
X0263976Y0149302D01*
X0263850Y0149206D01*
X0263722Y0149113D01*
X0263592Y0149023D01*
X0263459Y0148937D01*
X0263324Y0148853D01*
X0263188Y0148774D01*
X0263049Y0148697D01*
X0262908Y0148625D01*
X0262766Y0148555D01*
X0262622Y0148490D01*
X0262476Y0148428D01*
X0262329Y0148370D01*
X0262180Y0148315D01*
X0262030Y0148264D01*
X0261879Y0148217D01*
X0261727Y0148174D01*
X0261574Y0148135D01*
X0261419Y0148099D01*
X0261264Y0148068D01*
X0261108Y0148040D01*
X0260952Y0148016D01*
X0260795Y0147996D01*
X0260637Y0147980D01*
X0260480Y0147968D01*
X0260321Y0147960D01*
X0260163Y0147956D01*
X0260005Y0147956D01*
X0259847Y0147960D01*
X0259688Y0147968D01*
X0259531Y0147980D01*
X0259373Y0147996D01*
X0259216Y0148016D01*
X0259060Y0148040D01*
X0258904Y0148068D01*
X0258749Y0148099D01*
X0258594Y0148135D01*
X0258441Y0148174D01*
X0258289Y0148217D01*
X0258138Y0148264D01*
X0257988Y0148315D01*
X0257839Y0148370D01*
X0257692Y0148428D01*
X0257546Y0148490D01*
X0257402Y0148555D01*
X0257260Y0148625D01*
X0257119Y0148697D01*
X0256980Y0148774D01*
X0256844Y0148853D01*
X0256709Y0148937D01*
X0256576Y0149023D01*
X0256446Y0149113D01*
X0256318Y0149206D01*
X0256192Y0149302D01*
X0256069Y0149402D01*
X0255948Y0149504D01*
X0255830Y0149609D01*
X0255715Y0149718D01*
X0255602Y0149829D01*
X0255492Y0149943D01*
X0255385Y0150060D01*
X0255281Y0150179D01*
X0255180Y0150301D01*
X0255083Y0150426D01*
X0254988Y0150553D01*
X0254897Y0150682D01*
X0254808Y0150813D01*
X0254724Y0150947D01*
X0254642Y0151083D01*
X0254564Y0151220D01*
X0254490Y0151360D01*
X0254419Y0151502D01*
X0254351Y0151645D01*
X0254287Y0151790D01*
X0254227Y0151936D01*
X0254171Y0152084D01*
X0254118Y0152233D01*
X0254069Y0152384D01*
X0254024Y0152536D01*
X0253983Y0152689D01*
X0253945Y0152842D01*
X0253912Y0152997D01*
X0253882Y0153153D01*
X0253856Y0153309D01*
X0253835Y0153466D01*
X0253817Y0153623D01*
X0253803Y0153781D01*
X0253793Y0153939D01*
X0253787Y0154097D01*
X0253785Y0154255D01*
D11*
X0128899Y0142401D02*
X0128899Y0137401D01*
X0126399Y0134901D01*
X0121399Y0134901D01*
X0118899Y0137401D01*
X0116399Y0134901D01*
X0111399Y0134901D01*
X0108899Y0137401D01*
X0108899Y0142401D01*
X0111399Y0144901D01*
X0116399Y0144901D01*
X0118899Y0142401D01*
X0118899Y0137401D01*
X0118899Y0142401D02*
X0121399Y0144901D01*
X0126399Y0144901D01*
X0128899Y0142401D01*
X0108899Y0142401D02*
X0106399Y0144901D01*
X0101399Y0144901D01*
X0098899Y0142401D01*
X0096399Y0144901D01*
X0091399Y0144901D01*
X0088899Y0142401D01*
X0086399Y0144901D01*
X0081399Y0144901D01*
X0078899Y0142401D01*
X0078899Y0137401D01*
X0081399Y0134901D01*
X0086399Y0134901D01*
X0088899Y0137401D01*
X0091399Y0134901D01*
X0096399Y0134901D01*
X0098899Y0137401D01*
X0101399Y0134901D01*
X0106399Y0134901D01*
X0108899Y0137401D01*
X0098899Y0137401D02*
X0098899Y0142401D01*
X0088899Y0142401D02*
X0088899Y0137401D01*
X0078899Y0137401D02*
X0076399Y0134901D01*
X0071399Y0134901D01*
X0068899Y0137401D01*
X0066399Y0134901D01*
X0061399Y0134901D01*
X0058899Y0137401D01*
X0056399Y0134901D01*
X0051399Y0134901D01*
X0048899Y0137401D01*
X0048899Y0142401D01*
X0051399Y0144901D01*
X0056399Y0144901D01*
X0058899Y0142401D01*
X0058899Y0137401D01*
X0058899Y0142401D02*
X0061399Y0144901D01*
X0066399Y0144901D01*
X0068899Y0142401D01*
X0068899Y0137401D01*
X0068899Y0142401D02*
X0071399Y0144901D01*
X0076399Y0144901D01*
X0078899Y0142401D01*
M02*
