G75*
%MOIN*%
%OFA0B0*%
%FSLAX25Y25*%
%IPPOS*%
%LPD*%
%AMOC8*
5,1,8,0,0,1.08239X$1,22.5*
%
%ADD10C,0.00000*%
%ADD11OC8,0.05600*%
%ADD12C,0.15000*%
%ADD13C,0.12598*%
%ADD14C,0.04756*%
%ADD15C,0.05200*%
%ADD16C,0.06000*%
%ADD17C,0.05200*%
%ADD18C,0.03200*%
%ADD19C,0.04000*%
%ADD20C,0.01600*%
%ADD21R,0.03962X0.03962*%
D10*
X0008584Y0005255D02*
X0007584Y0171031D01*
X0269321Y0168716D01*
X0271580Y0005125D01*
X0008584Y0005255D01*
X0016285Y0156755D02*
X0016287Y0156913D01*
X0016293Y0157071D01*
X0016303Y0157229D01*
X0016317Y0157387D01*
X0016335Y0157544D01*
X0016356Y0157701D01*
X0016382Y0157857D01*
X0016412Y0158013D01*
X0016445Y0158168D01*
X0016483Y0158321D01*
X0016524Y0158474D01*
X0016569Y0158626D01*
X0016618Y0158777D01*
X0016671Y0158926D01*
X0016727Y0159074D01*
X0016787Y0159220D01*
X0016851Y0159365D01*
X0016919Y0159508D01*
X0016990Y0159650D01*
X0017064Y0159790D01*
X0017142Y0159927D01*
X0017224Y0160063D01*
X0017308Y0160197D01*
X0017397Y0160328D01*
X0017488Y0160457D01*
X0017583Y0160584D01*
X0017680Y0160709D01*
X0017781Y0160831D01*
X0017885Y0160950D01*
X0017992Y0161067D01*
X0018102Y0161181D01*
X0018215Y0161292D01*
X0018330Y0161401D01*
X0018448Y0161506D01*
X0018569Y0161608D01*
X0018692Y0161708D01*
X0018818Y0161804D01*
X0018946Y0161897D01*
X0019076Y0161987D01*
X0019209Y0162073D01*
X0019344Y0162157D01*
X0019480Y0162236D01*
X0019619Y0162313D01*
X0019760Y0162385D01*
X0019902Y0162455D01*
X0020046Y0162520D01*
X0020192Y0162582D01*
X0020339Y0162640D01*
X0020488Y0162695D01*
X0020638Y0162746D01*
X0020789Y0162793D01*
X0020941Y0162836D01*
X0021094Y0162875D01*
X0021249Y0162911D01*
X0021404Y0162942D01*
X0021560Y0162970D01*
X0021716Y0162994D01*
X0021873Y0163014D01*
X0022031Y0163030D01*
X0022188Y0163042D01*
X0022347Y0163050D01*
X0022505Y0163054D01*
X0022663Y0163054D01*
X0022821Y0163050D01*
X0022980Y0163042D01*
X0023137Y0163030D01*
X0023295Y0163014D01*
X0023452Y0162994D01*
X0023608Y0162970D01*
X0023764Y0162942D01*
X0023919Y0162911D01*
X0024074Y0162875D01*
X0024227Y0162836D01*
X0024379Y0162793D01*
X0024530Y0162746D01*
X0024680Y0162695D01*
X0024829Y0162640D01*
X0024976Y0162582D01*
X0025122Y0162520D01*
X0025266Y0162455D01*
X0025408Y0162385D01*
X0025549Y0162313D01*
X0025688Y0162236D01*
X0025824Y0162157D01*
X0025959Y0162073D01*
X0026092Y0161987D01*
X0026222Y0161897D01*
X0026350Y0161804D01*
X0026476Y0161708D01*
X0026599Y0161608D01*
X0026720Y0161506D01*
X0026838Y0161401D01*
X0026953Y0161292D01*
X0027066Y0161181D01*
X0027176Y0161067D01*
X0027283Y0160950D01*
X0027387Y0160831D01*
X0027488Y0160709D01*
X0027585Y0160584D01*
X0027680Y0160457D01*
X0027771Y0160328D01*
X0027860Y0160197D01*
X0027944Y0160063D01*
X0028026Y0159927D01*
X0028104Y0159790D01*
X0028178Y0159650D01*
X0028249Y0159508D01*
X0028317Y0159365D01*
X0028381Y0159220D01*
X0028441Y0159074D01*
X0028497Y0158926D01*
X0028550Y0158777D01*
X0028599Y0158626D01*
X0028644Y0158474D01*
X0028685Y0158321D01*
X0028723Y0158168D01*
X0028756Y0158013D01*
X0028786Y0157857D01*
X0028812Y0157701D01*
X0028833Y0157544D01*
X0028851Y0157387D01*
X0028865Y0157229D01*
X0028875Y0157071D01*
X0028881Y0156913D01*
X0028883Y0156755D01*
X0028881Y0156597D01*
X0028875Y0156439D01*
X0028865Y0156281D01*
X0028851Y0156123D01*
X0028833Y0155966D01*
X0028812Y0155809D01*
X0028786Y0155653D01*
X0028756Y0155497D01*
X0028723Y0155342D01*
X0028685Y0155189D01*
X0028644Y0155036D01*
X0028599Y0154884D01*
X0028550Y0154733D01*
X0028497Y0154584D01*
X0028441Y0154436D01*
X0028381Y0154290D01*
X0028317Y0154145D01*
X0028249Y0154002D01*
X0028178Y0153860D01*
X0028104Y0153720D01*
X0028026Y0153583D01*
X0027944Y0153447D01*
X0027860Y0153313D01*
X0027771Y0153182D01*
X0027680Y0153053D01*
X0027585Y0152926D01*
X0027488Y0152801D01*
X0027387Y0152679D01*
X0027283Y0152560D01*
X0027176Y0152443D01*
X0027066Y0152329D01*
X0026953Y0152218D01*
X0026838Y0152109D01*
X0026720Y0152004D01*
X0026599Y0151902D01*
X0026476Y0151802D01*
X0026350Y0151706D01*
X0026222Y0151613D01*
X0026092Y0151523D01*
X0025959Y0151437D01*
X0025824Y0151353D01*
X0025688Y0151274D01*
X0025549Y0151197D01*
X0025408Y0151125D01*
X0025266Y0151055D01*
X0025122Y0150990D01*
X0024976Y0150928D01*
X0024829Y0150870D01*
X0024680Y0150815D01*
X0024530Y0150764D01*
X0024379Y0150717D01*
X0024227Y0150674D01*
X0024074Y0150635D01*
X0023919Y0150599D01*
X0023764Y0150568D01*
X0023608Y0150540D01*
X0023452Y0150516D01*
X0023295Y0150496D01*
X0023137Y0150480D01*
X0022980Y0150468D01*
X0022821Y0150460D01*
X0022663Y0150456D01*
X0022505Y0150456D01*
X0022347Y0150460D01*
X0022188Y0150468D01*
X0022031Y0150480D01*
X0021873Y0150496D01*
X0021716Y0150516D01*
X0021560Y0150540D01*
X0021404Y0150568D01*
X0021249Y0150599D01*
X0021094Y0150635D01*
X0020941Y0150674D01*
X0020789Y0150717D01*
X0020638Y0150764D01*
X0020488Y0150815D01*
X0020339Y0150870D01*
X0020192Y0150928D01*
X0020046Y0150990D01*
X0019902Y0151055D01*
X0019760Y0151125D01*
X0019619Y0151197D01*
X0019480Y0151274D01*
X0019344Y0151353D01*
X0019209Y0151437D01*
X0019076Y0151523D01*
X0018946Y0151613D01*
X0018818Y0151706D01*
X0018692Y0151802D01*
X0018569Y0151902D01*
X0018448Y0152004D01*
X0018330Y0152109D01*
X0018215Y0152218D01*
X0018102Y0152329D01*
X0017992Y0152443D01*
X0017885Y0152560D01*
X0017781Y0152679D01*
X0017680Y0152801D01*
X0017583Y0152926D01*
X0017488Y0153053D01*
X0017397Y0153182D01*
X0017308Y0153313D01*
X0017224Y0153447D01*
X0017142Y0153583D01*
X0017064Y0153720D01*
X0016990Y0153860D01*
X0016919Y0154002D01*
X0016851Y0154145D01*
X0016787Y0154290D01*
X0016727Y0154436D01*
X0016671Y0154584D01*
X0016618Y0154733D01*
X0016569Y0154884D01*
X0016524Y0155036D01*
X0016483Y0155189D01*
X0016445Y0155342D01*
X0016412Y0155497D01*
X0016382Y0155653D01*
X0016356Y0155809D01*
X0016335Y0155966D01*
X0016317Y0156123D01*
X0016303Y0156281D01*
X0016293Y0156439D01*
X0016287Y0156597D01*
X0016285Y0156755D01*
X0253285Y0016755D02*
X0253287Y0016913D01*
X0253293Y0017071D01*
X0253303Y0017229D01*
X0253317Y0017387D01*
X0253335Y0017544D01*
X0253356Y0017701D01*
X0253382Y0017857D01*
X0253412Y0018013D01*
X0253445Y0018168D01*
X0253483Y0018321D01*
X0253524Y0018474D01*
X0253569Y0018626D01*
X0253618Y0018777D01*
X0253671Y0018926D01*
X0253727Y0019074D01*
X0253787Y0019220D01*
X0253851Y0019365D01*
X0253919Y0019508D01*
X0253990Y0019650D01*
X0254064Y0019790D01*
X0254142Y0019927D01*
X0254224Y0020063D01*
X0254308Y0020197D01*
X0254397Y0020328D01*
X0254488Y0020457D01*
X0254583Y0020584D01*
X0254680Y0020709D01*
X0254781Y0020831D01*
X0254885Y0020950D01*
X0254992Y0021067D01*
X0255102Y0021181D01*
X0255215Y0021292D01*
X0255330Y0021401D01*
X0255448Y0021506D01*
X0255569Y0021608D01*
X0255692Y0021708D01*
X0255818Y0021804D01*
X0255946Y0021897D01*
X0256076Y0021987D01*
X0256209Y0022073D01*
X0256344Y0022157D01*
X0256480Y0022236D01*
X0256619Y0022313D01*
X0256760Y0022385D01*
X0256902Y0022455D01*
X0257046Y0022520D01*
X0257192Y0022582D01*
X0257339Y0022640D01*
X0257488Y0022695D01*
X0257638Y0022746D01*
X0257789Y0022793D01*
X0257941Y0022836D01*
X0258094Y0022875D01*
X0258249Y0022911D01*
X0258404Y0022942D01*
X0258560Y0022970D01*
X0258716Y0022994D01*
X0258873Y0023014D01*
X0259031Y0023030D01*
X0259188Y0023042D01*
X0259347Y0023050D01*
X0259505Y0023054D01*
X0259663Y0023054D01*
X0259821Y0023050D01*
X0259980Y0023042D01*
X0260137Y0023030D01*
X0260295Y0023014D01*
X0260452Y0022994D01*
X0260608Y0022970D01*
X0260764Y0022942D01*
X0260919Y0022911D01*
X0261074Y0022875D01*
X0261227Y0022836D01*
X0261379Y0022793D01*
X0261530Y0022746D01*
X0261680Y0022695D01*
X0261829Y0022640D01*
X0261976Y0022582D01*
X0262122Y0022520D01*
X0262266Y0022455D01*
X0262408Y0022385D01*
X0262549Y0022313D01*
X0262688Y0022236D01*
X0262824Y0022157D01*
X0262959Y0022073D01*
X0263092Y0021987D01*
X0263222Y0021897D01*
X0263350Y0021804D01*
X0263476Y0021708D01*
X0263599Y0021608D01*
X0263720Y0021506D01*
X0263838Y0021401D01*
X0263953Y0021292D01*
X0264066Y0021181D01*
X0264176Y0021067D01*
X0264283Y0020950D01*
X0264387Y0020831D01*
X0264488Y0020709D01*
X0264585Y0020584D01*
X0264680Y0020457D01*
X0264771Y0020328D01*
X0264860Y0020197D01*
X0264944Y0020063D01*
X0265026Y0019927D01*
X0265104Y0019790D01*
X0265178Y0019650D01*
X0265249Y0019508D01*
X0265317Y0019365D01*
X0265381Y0019220D01*
X0265441Y0019074D01*
X0265497Y0018926D01*
X0265550Y0018777D01*
X0265599Y0018626D01*
X0265644Y0018474D01*
X0265685Y0018321D01*
X0265723Y0018168D01*
X0265756Y0018013D01*
X0265786Y0017857D01*
X0265812Y0017701D01*
X0265833Y0017544D01*
X0265851Y0017387D01*
X0265865Y0017229D01*
X0265875Y0017071D01*
X0265881Y0016913D01*
X0265883Y0016755D01*
X0265881Y0016597D01*
X0265875Y0016439D01*
X0265865Y0016281D01*
X0265851Y0016123D01*
X0265833Y0015966D01*
X0265812Y0015809D01*
X0265786Y0015653D01*
X0265756Y0015497D01*
X0265723Y0015342D01*
X0265685Y0015189D01*
X0265644Y0015036D01*
X0265599Y0014884D01*
X0265550Y0014733D01*
X0265497Y0014584D01*
X0265441Y0014436D01*
X0265381Y0014290D01*
X0265317Y0014145D01*
X0265249Y0014002D01*
X0265178Y0013860D01*
X0265104Y0013720D01*
X0265026Y0013583D01*
X0264944Y0013447D01*
X0264860Y0013313D01*
X0264771Y0013182D01*
X0264680Y0013053D01*
X0264585Y0012926D01*
X0264488Y0012801D01*
X0264387Y0012679D01*
X0264283Y0012560D01*
X0264176Y0012443D01*
X0264066Y0012329D01*
X0263953Y0012218D01*
X0263838Y0012109D01*
X0263720Y0012004D01*
X0263599Y0011902D01*
X0263476Y0011802D01*
X0263350Y0011706D01*
X0263222Y0011613D01*
X0263092Y0011523D01*
X0262959Y0011437D01*
X0262824Y0011353D01*
X0262688Y0011274D01*
X0262549Y0011197D01*
X0262408Y0011125D01*
X0262266Y0011055D01*
X0262122Y0010990D01*
X0261976Y0010928D01*
X0261829Y0010870D01*
X0261680Y0010815D01*
X0261530Y0010764D01*
X0261379Y0010717D01*
X0261227Y0010674D01*
X0261074Y0010635D01*
X0260919Y0010599D01*
X0260764Y0010568D01*
X0260608Y0010540D01*
X0260452Y0010516D01*
X0260295Y0010496D01*
X0260137Y0010480D01*
X0259980Y0010468D01*
X0259821Y0010460D01*
X0259663Y0010456D01*
X0259505Y0010456D01*
X0259347Y0010460D01*
X0259188Y0010468D01*
X0259031Y0010480D01*
X0258873Y0010496D01*
X0258716Y0010516D01*
X0258560Y0010540D01*
X0258404Y0010568D01*
X0258249Y0010599D01*
X0258094Y0010635D01*
X0257941Y0010674D01*
X0257789Y0010717D01*
X0257638Y0010764D01*
X0257488Y0010815D01*
X0257339Y0010870D01*
X0257192Y0010928D01*
X0257046Y0010990D01*
X0256902Y0011055D01*
X0256760Y0011125D01*
X0256619Y0011197D01*
X0256480Y0011274D01*
X0256344Y0011353D01*
X0256209Y0011437D01*
X0256076Y0011523D01*
X0255946Y0011613D01*
X0255818Y0011706D01*
X0255692Y0011802D01*
X0255569Y0011902D01*
X0255448Y0012004D01*
X0255330Y0012109D01*
X0255215Y0012218D01*
X0255102Y0012329D01*
X0254992Y0012443D01*
X0254885Y0012560D01*
X0254781Y0012679D01*
X0254680Y0012801D01*
X0254583Y0012926D01*
X0254488Y0013053D01*
X0254397Y0013182D01*
X0254308Y0013313D01*
X0254224Y0013447D01*
X0254142Y0013583D01*
X0254064Y0013720D01*
X0253990Y0013860D01*
X0253919Y0014002D01*
X0253851Y0014145D01*
X0253787Y0014290D01*
X0253727Y0014436D01*
X0253671Y0014584D01*
X0253618Y0014733D01*
X0253569Y0014884D01*
X0253524Y0015036D01*
X0253483Y0015189D01*
X0253445Y0015342D01*
X0253412Y0015497D01*
X0253382Y0015653D01*
X0253356Y0015809D01*
X0253335Y0015966D01*
X0253317Y0016123D01*
X0253303Y0016281D01*
X0253293Y0016439D01*
X0253287Y0016597D01*
X0253285Y0016755D01*
X0253785Y0154255D02*
X0253787Y0154413D01*
X0253793Y0154571D01*
X0253803Y0154729D01*
X0253817Y0154887D01*
X0253835Y0155044D01*
X0253856Y0155201D01*
X0253882Y0155357D01*
X0253912Y0155513D01*
X0253945Y0155668D01*
X0253983Y0155821D01*
X0254024Y0155974D01*
X0254069Y0156126D01*
X0254118Y0156277D01*
X0254171Y0156426D01*
X0254227Y0156574D01*
X0254287Y0156720D01*
X0254351Y0156865D01*
X0254419Y0157008D01*
X0254490Y0157150D01*
X0254564Y0157290D01*
X0254642Y0157427D01*
X0254724Y0157563D01*
X0254808Y0157697D01*
X0254897Y0157828D01*
X0254988Y0157957D01*
X0255083Y0158084D01*
X0255180Y0158209D01*
X0255281Y0158331D01*
X0255385Y0158450D01*
X0255492Y0158567D01*
X0255602Y0158681D01*
X0255715Y0158792D01*
X0255830Y0158901D01*
X0255948Y0159006D01*
X0256069Y0159108D01*
X0256192Y0159208D01*
X0256318Y0159304D01*
X0256446Y0159397D01*
X0256576Y0159487D01*
X0256709Y0159573D01*
X0256844Y0159657D01*
X0256980Y0159736D01*
X0257119Y0159813D01*
X0257260Y0159885D01*
X0257402Y0159955D01*
X0257546Y0160020D01*
X0257692Y0160082D01*
X0257839Y0160140D01*
X0257988Y0160195D01*
X0258138Y0160246D01*
X0258289Y0160293D01*
X0258441Y0160336D01*
X0258594Y0160375D01*
X0258749Y0160411D01*
X0258904Y0160442D01*
X0259060Y0160470D01*
X0259216Y0160494D01*
X0259373Y0160514D01*
X0259531Y0160530D01*
X0259688Y0160542D01*
X0259847Y0160550D01*
X0260005Y0160554D01*
X0260163Y0160554D01*
X0260321Y0160550D01*
X0260480Y0160542D01*
X0260637Y0160530D01*
X0260795Y0160514D01*
X0260952Y0160494D01*
X0261108Y0160470D01*
X0261264Y0160442D01*
X0261419Y0160411D01*
X0261574Y0160375D01*
X0261727Y0160336D01*
X0261879Y0160293D01*
X0262030Y0160246D01*
X0262180Y0160195D01*
X0262329Y0160140D01*
X0262476Y0160082D01*
X0262622Y0160020D01*
X0262766Y0159955D01*
X0262908Y0159885D01*
X0263049Y0159813D01*
X0263188Y0159736D01*
X0263324Y0159657D01*
X0263459Y0159573D01*
X0263592Y0159487D01*
X0263722Y0159397D01*
X0263850Y0159304D01*
X0263976Y0159208D01*
X0264099Y0159108D01*
X0264220Y0159006D01*
X0264338Y0158901D01*
X0264453Y0158792D01*
X0264566Y0158681D01*
X0264676Y0158567D01*
X0264783Y0158450D01*
X0264887Y0158331D01*
X0264988Y0158209D01*
X0265085Y0158084D01*
X0265180Y0157957D01*
X0265271Y0157828D01*
X0265360Y0157697D01*
X0265444Y0157563D01*
X0265526Y0157427D01*
X0265604Y0157290D01*
X0265678Y0157150D01*
X0265749Y0157008D01*
X0265817Y0156865D01*
X0265881Y0156720D01*
X0265941Y0156574D01*
X0265997Y0156426D01*
X0266050Y0156277D01*
X0266099Y0156126D01*
X0266144Y0155974D01*
X0266185Y0155821D01*
X0266223Y0155668D01*
X0266256Y0155513D01*
X0266286Y0155357D01*
X0266312Y0155201D01*
X0266333Y0155044D01*
X0266351Y0154887D01*
X0266365Y0154729D01*
X0266375Y0154571D01*
X0266381Y0154413D01*
X0266383Y0154255D01*
X0266381Y0154097D01*
X0266375Y0153939D01*
X0266365Y0153781D01*
X0266351Y0153623D01*
X0266333Y0153466D01*
X0266312Y0153309D01*
X0266286Y0153153D01*
X0266256Y0152997D01*
X0266223Y0152842D01*
X0266185Y0152689D01*
X0266144Y0152536D01*
X0266099Y0152384D01*
X0266050Y0152233D01*
X0265997Y0152084D01*
X0265941Y0151936D01*
X0265881Y0151790D01*
X0265817Y0151645D01*
X0265749Y0151502D01*
X0265678Y0151360D01*
X0265604Y0151220D01*
X0265526Y0151083D01*
X0265444Y0150947D01*
X0265360Y0150813D01*
X0265271Y0150682D01*
X0265180Y0150553D01*
X0265085Y0150426D01*
X0264988Y0150301D01*
X0264887Y0150179D01*
X0264783Y0150060D01*
X0264676Y0149943D01*
X0264566Y0149829D01*
X0264453Y0149718D01*
X0264338Y0149609D01*
X0264220Y0149504D01*
X0264099Y0149402D01*
X0263976Y0149302D01*
X0263850Y0149206D01*
X0263722Y0149113D01*
X0263592Y0149023D01*
X0263459Y0148937D01*
X0263324Y0148853D01*
X0263188Y0148774D01*
X0263049Y0148697D01*
X0262908Y0148625D01*
X0262766Y0148555D01*
X0262622Y0148490D01*
X0262476Y0148428D01*
X0262329Y0148370D01*
X0262180Y0148315D01*
X0262030Y0148264D01*
X0261879Y0148217D01*
X0261727Y0148174D01*
X0261574Y0148135D01*
X0261419Y0148099D01*
X0261264Y0148068D01*
X0261108Y0148040D01*
X0260952Y0148016D01*
X0260795Y0147996D01*
X0260637Y0147980D01*
X0260480Y0147968D01*
X0260321Y0147960D01*
X0260163Y0147956D01*
X0260005Y0147956D01*
X0259847Y0147960D01*
X0259688Y0147968D01*
X0259531Y0147980D01*
X0259373Y0147996D01*
X0259216Y0148016D01*
X0259060Y0148040D01*
X0258904Y0148068D01*
X0258749Y0148099D01*
X0258594Y0148135D01*
X0258441Y0148174D01*
X0258289Y0148217D01*
X0258138Y0148264D01*
X0257988Y0148315D01*
X0257839Y0148370D01*
X0257692Y0148428D01*
X0257546Y0148490D01*
X0257402Y0148555D01*
X0257260Y0148625D01*
X0257119Y0148697D01*
X0256980Y0148774D01*
X0256844Y0148853D01*
X0256709Y0148937D01*
X0256576Y0149023D01*
X0256446Y0149113D01*
X0256318Y0149206D01*
X0256192Y0149302D01*
X0256069Y0149402D01*
X0255948Y0149504D01*
X0255830Y0149609D01*
X0255715Y0149718D01*
X0255602Y0149829D01*
X0255492Y0149943D01*
X0255385Y0150060D01*
X0255281Y0150179D01*
X0255180Y0150301D01*
X0255083Y0150426D01*
X0254988Y0150553D01*
X0254897Y0150682D01*
X0254808Y0150813D01*
X0254724Y0150947D01*
X0254642Y0151083D01*
X0254564Y0151220D01*
X0254490Y0151360D01*
X0254419Y0151502D01*
X0254351Y0151645D01*
X0254287Y0151790D01*
X0254227Y0151936D01*
X0254171Y0152084D01*
X0254118Y0152233D01*
X0254069Y0152384D01*
X0254024Y0152536D01*
X0253983Y0152689D01*
X0253945Y0152842D01*
X0253912Y0152997D01*
X0253882Y0153153D01*
X0253856Y0153309D01*
X0253835Y0153466D01*
X0253817Y0153623D01*
X0253803Y0153781D01*
X0253793Y0153939D01*
X0253787Y0154097D01*
X0253785Y0154255D01*
D11*
X0191584Y0031070D03*
X0191584Y0021070D03*
X0211769Y0022330D03*
X0221769Y0022330D03*
X0136584Y0026070D03*
X0136584Y0016070D03*
X0120974Y0016700D03*
X0120974Y0026700D03*
D12*
X0155632Y0155031D03*
X0187128Y0155031D03*
D13*
X0187128Y0136527D03*
X0155632Y0136527D03*
D14*
X0165080Y0131802D02*
X0165080Y0127046D01*
X0171380Y0127046D02*
X0171380Y0131802D01*
X0177679Y0131802D02*
X0177679Y0127046D01*
X0174529Y0136920D02*
X0174529Y0141676D01*
X0168230Y0141676D02*
X0168230Y0136920D01*
D15*
X0163545Y0108780D02*
X0163545Y0103580D01*
X0173545Y0103580D02*
X0173545Y0108780D01*
X0183545Y0108780D02*
X0183545Y0103580D01*
X0193545Y0103580D02*
X0193545Y0108780D01*
X0203545Y0108780D02*
X0203545Y0103580D01*
X0213545Y0103580D02*
X0213545Y0108780D01*
X0223545Y0108780D02*
X0223545Y0103580D01*
X0153545Y0103580D02*
X0153545Y0108780D01*
X0143545Y0108780D02*
X0143545Y0103580D01*
X0133545Y0103580D02*
X0133545Y0108780D01*
X0123545Y0108780D02*
X0123545Y0103580D01*
X0113545Y0103580D02*
X0113545Y0108780D01*
X0103545Y0108780D02*
X0103545Y0103580D01*
X0093545Y0103580D02*
X0093545Y0108780D01*
X0083545Y0108780D02*
X0083545Y0103580D01*
X0073545Y0103580D02*
X0073545Y0108780D01*
X0063545Y0108780D02*
X0063545Y0103580D01*
X0053545Y0103580D02*
X0053545Y0108780D01*
X0043545Y0108780D02*
X0043545Y0103580D01*
X0033545Y0103580D02*
X0033545Y0108780D01*
X0033545Y0048780D02*
X0033545Y0043580D01*
X0043545Y0043580D02*
X0043545Y0048780D01*
X0053545Y0048780D02*
X0053545Y0043580D01*
X0063545Y0043580D02*
X0063545Y0048780D01*
X0073545Y0048780D02*
X0073545Y0043580D01*
X0083545Y0043580D02*
X0083545Y0048780D01*
X0093545Y0048780D02*
X0093545Y0043580D01*
X0103545Y0043580D02*
X0103545Y0048780D01*
X0113545Y0048780D02*
X0113545Y0043580D01*
X0123545Y0043580D02*
X0123545Y0048780D01*
X0133545Y0048780D02*
X0133545Y0043580D01*
X0143545Y0043580D02*
X0143545Y0048780D01*
X0153545Y0048780D02*
X0153545Y0043580D01*
X0163545Y0043580D02*
X0163545Y0048780D01*
X0173545Y0048780D02*
X0173545Y0043580D01*
X0183545Y0043580D02*
X0183545Y0048780D01*
X0193545Y0048780D02*
X0193545Y0043580D01*
X0203545Y0043580D02*
X0203545Y0048780D01*
X0213545Y0048780D02*
X0213545Y0043580D01*
X0223545Y0043580D02*
X0223545Y0048780D01*
D16*
X0255250Y0060196D02*
X0261250Y0060196D01*
X0261250Y0070196D02*
X0255250Y0070196D01*
X0255250Y0080196D02*
X0261250Y0080196D01*
X0261250Y0090196D02*
X0255250Y0090196D01*
X0255250Y0100196D02*
X0261250Y0100196D01*
X0261250Y0110196D02*
X0255250Y0110196D01*
X0255250Y0120196D02*
X0261250Y0120196D01*
X0261250Y0130196D02*
X0255250Y0130196D01*
X0123899Y0136901D02*
X0123899Y0142901D01*
X0113899Y0142901D02*
X0113899Y0136901D01*
X0103899Y0136901D02*
X0103899Y0142901D01*
X0093899Y0142901D02*
X0093899Y0136901D01*
X0083899Y0136901D02*
X0083899Y0142901D01*
X0073899Y0142901D02*
X0073899Y0136901D01*
X0063899Y0136901D02*
X0063899Y0142901D01*
X0053899Y0142901D02*
X0053899Y0136901D01*
X0050324Y0024550D02*
X0050324Y0018550D01*
X0040324Y0018550D02*
X0040324Y0024550D01*
X0030324Y0024550D02*
X0030324Y0018550D01*
X0093529Y0018125D02*
X0093529Y0024125D01*
X0103529Y0024125D02*
X0103529Y0018125D01*
D17*
X0153584Y0021200D03*
X0173584Y0021200D03*
D18*
X0191584Y0021070D01*
X0203545Y0030554D02*
X0211769Y0022330D01*
X0203545Y0030554D02*
X0203545Y0046180D01*
X0213545Y0046180D02*
X0213545Y0061846D01*
X0220584Y0068885D01*
X0256939Y0068885D01*
X0258250Y0070196D01*
X0258250Y0060196D02*
X0244234Y0046180D01*
X0223545Y0046180D01*
X0208584Y0059755D02*
X0205584Y0056755D01*
X0189084Y0056755D01*
X0183584Y0051255D01*
X0183584Y0046220D01*
X0183545Y0046180D01*
X0173584Y0046220D02*
X0173545Y0046180D01*
X0173584Y0046220D02*
X0173584Y0052755D01*
X0183584Y0062755D01*
X0197584Y0062755D01*
X0213584Y0078755D01*
X0215084Y0078755D01*
X0216584Y0080255D01*
X0242084Y0080255D01*
X0252025Y0090196D01*
X0258250Y0090196D01*
X0258061Y0090385D01*
X0258250Y0090196D02*
X0263273Y0090196D01*
X0258250Y0080196D02*
X0251525Y0080196D01*
X0246084Y0074755D01*
X0218584Y0074755D01*
X0208584Y0064755D01*
X0208584Y0059755D01*
X0239084Y0085755D02*
X0162584Y0085755D01*
X0162084Y0085255D01*
X0153084Y0094255D01*
X0153084Y0105720D01*
X0153545Y0106180D01*
X0163545Y0106180D02*
X0163584Y0106141D01*
X0163584Y0098755D01*
X0169084Y0093255D01*
X0169584Y0093255D01*
X0170084Y0093755D01*
X0234084Y0093755D01*
X0250525Y0110196D01*
X0258250Y0110196D01*
X0258250Y0100196D02*
X0253525Y0100196D01*
X0239084Y0085755D01*
X0257939Y0079885D02*
X0258250Y0080196D01*
X0223545Y0106180D02*
X0223084Y0106641D01*
X0223084Y0113755D01*
X0229525Y0120196D01*
X0258250Y0120196D01*
X0258250Y0130196D02*
X0228025Y0130196D01*
X0213584Y0115755D01*
X0213584Y0106220D01*
X0213545Y0106180D01*
X0203545Y0106180D02*
X0203545Y0136424D01*
X0195084Y0144885D01*
X0182494Y0144885D01*
X0174529Y0136920D01*
X0171380Y0131802D02*
X0171584Y0131598D01*
X0171584Y0119885D01*
X0173084Y0118385D01*
X0185084Y0118385D01*
X0193545Y0109924D01*
X0193545Y0106180D01*
X0143545Y0106180D02*
X0143545Y0110924D01*
X0123584Y0130885D01*
X0123584Y0139586D01*
X0123899Y0139901D01*
X0113899Y0139901D02*
X0113584Y0139586D01*
X0113584Y0128385D01*
X0133545Y0108424D01*
X0133545Y0106180D01*
X0113584Y0106141D02*
X0113545Y0106180D01*
X0103899Y0106535D02*
X0103545Y0106180D01*
X0103899Y0106535D02*
X0103899Y0139901D01*
X0093899Y0139901D02*
X0093899Y0106535D01*
X0093545Y0106180D01*
X0083899Y0106535D02*
X0083545Y0106180D01*
X0083899Y0106535D02*
X0083899Y0139901D01*
X0073899Y0139901D02*
X0073899Y0106535D01*
X0073545Y0106180D01*
X0063899Y0106535D02*
X0063545Y0106180D01*
X0063899Y0106535D02*
X0063899Y0139901D01*
X0053899Y0139901D02*
X0053899Y0106535D01*
X0053545Y0106180D01*
X0043584Y0106141D02*
X0043545Y0106180D01*
X0043584Y0106141D02*
X0043584Y0083385D01*
X0023584Y0063385D01*
X0018584Y0073385D02*
X0033584Y0088385D01*
X0033584Y0106141D01*
X0033545Y0106180D01*
X0136899Y0016385D02*
X0149584Y0016385D01*
X0153584Y0020385D01*
X0153584Y0021200D02*
X0153545Y0021239D01*
X0153545Y0046180D01*
X0163545Y0046180D02*
X0163545Y0031239D01*
X0173584Y0021200D01*
D19*
X0153584Y0021200D02*
X0153584Y0020385D01*
X0136899Y0016385D02*
X0136584Y0016070D01*
X0124399Y0026700D02*
X0133584Y0035885D01*
X0133584Y0046141D01*
X0133545Y0046180D01*
X0133545Y0065924D01*
X0113584Y0085885D01*
X0113584Y0106141D01*
X0177679Y0131802D02*
X0178167Y0131802D01*
X0124399Y0026700D02*
X0120974Y0026700D01*
X0120659Y0026385D01*
X0110084Y0026385D01*
X0104824Y0021125D01*
X0103529Y0021125D01*
X0050584Y0021810D02*
X0050324Y0021550D01*
X0050584Y0021810D02*
X0050584Y0026385D01*
X0033545Y0043424D01*
X0033545Y0046180D01*
X0023584Y0043385D02*
X0040324Y0026645D01*
X0040324Y0021550D01*
X0030324Y0021550D02*
X0017584Y0034291D01*
X0017584Y0072385D01*
X0018584Y0073385D01*
X0023584Y0063385D02*
X0023584Y0043385D01*
D20*
X0027184Y0044876D02*
X0027184Y0062460D01*
X0045397Y0080672D01*
X0046297Y0081572D01*
X0046784Y0082749D01*
X0046784Y0100880D01*
X0047106Y0101201D01*
X0047745Y0102745D01*
X0047745Y0109616D01*
X0047106Y0111159D01*
X0045924Y0112341D01*
X0044380Y0112980D01*
X0042710Y0112980D01*
X0041166Y0112341D01*
X0039984Y0111159D01*
X0039345Y0109616D01*
X0039345Y0102745D01*
X0039984Y0101201D01*
X0040384Y0100801D01*
X0040384Y0084711D01*
X0022511Y0066837D01*
X0021545Y0066437D01*
X0021184Y0066076D01*
X0021184Y0070894D01*
X0021636Y0071346D01*
X0022036Y0072311D01*
X0035397Y0085672D01*
X0036297Y0086572D01*
X0036784Y0087749D01*
X0036784Y0100880D01*
X0037106Y0101201D01*
X0037745Y0102745D01*
X0037745Y0109616D01*
X0037106Y0111159D01*
X0035924Y0112341D01*
X0034380Y0112980D01*
X0032710Y0112980D01*
X0031166Y0112341D01*
X0029984Y0111159D01*
X0029345Y0109616D01*
X0029345Y0102745D01*
X0029984Y0101201D01*
X0030384Y0100801D01*
X0030384Y0089711D01*
X0017511Y0076837D01*
X0016545Y0076437D01*
X0015545Y0075437D01*
X0014532Y0074424D01*
X0013984Y0073101D01*
X0013984Y0033574D01*
X0014532Y0032251D01*
X0015545Y0031239D01*
X0025724Y0021059D01*
X0025724Y0017635D01*
X0026425Y0015945D01*
X0027719Y0014651D01*
X0029409Y0013950D01*
X0031239Y0013950D01*
X0032930Y0014651D01*
X0034224Y0015945D01*
X0034924Y0017635D01*
X0034924Y0025465D01*
X0034224Y0027156D01*
X0032930Y0028450D01*
X0031239Y0029150D01*
X0029409Y0029150D01*
X0028282Y0028684D01*
X0021184Y0035782D01*
X0021184Y0040694D01*
X0035926Y0025952D01*
X0035724Y0025465D01*
X0035724Y0017635D01*
X0036425Y0015945D01*
X0037719Y0014651D01*
X0039409Y0013950D01*
X0041239Y0013950D01*
X0042930Y0014651D01*
X0044224Y0015945D01*
X0044924Y0017635D01*
X0044924Y0025465D01*
X0044224Y0027156D01*
X0043857Y0027523D01*
X0043505Y0028373D01*
X0045926Y0025952D01*
X0045724Y0025465D01*
X0045724Y0017635D01*
X0046425Y0015945D01*
X0047719Y0014651D01*
X0049409Y0013950D01*
X0051239Y0013950D01*
X0052930Y0014651D01*
X0054224Y0015945D01*
X0054924Y0017635D01*
X0054924Y0025465D01*
X0054224Y0027156D01*
X0054117Y0027263D01*
X0053636Y0028424D01*
X0052624Y0029437D01*
X0042659Y0039401D01*
X0042710Y0039380D01*
X0044380Y0039380D01*
X0045924Y0040020D01*
X0047106Y0041201D01*
X0047745Y0042745D01*
X0047745Y0049616D01*
X0047106Y0051159D01*
X0045924Y0052341D01*
X0044380Y0052980D01*
X0042710Y0052980D01*
X0041166Y0052341D01*
X0039984Y0051159D01*
X0039345Y0049616D01*
X0039345Y0042745D01*
X0039366Y0042695D01*
X0037745Y0044316D01*
X0037745Y0049616D01*
X0037106Y0051159D01*
X0035924Y0052341D01*
X0034380Y0052980D01*
X0032710Y0052980D01*
X0031166Y0052341D01*
X0029984Y0051159D01*
X0029345Y0049616D01*
X0029345Y0042745D01*
X0029366Y0042695D01*
X0027184Y0044876D01*
X0027540Y0044521D02*
X0029345Y0044521D01*
X0029345Y0046119D02*
X0027184Y0046119D01*
X0027184Y0047718D02*
X0029345Y0047718D01*
X0029345Y0049316D02*
X0027184Y0049316D01*
X0027184Y0050915D02*
X0029883Y0050915D01*
X0031582Y0052513D02*
X0027184Y0052513D01*
X0027184Y0054112D02*
X0129945Y0054112D01*
X0129945Y0055710D02*
X0027184Y0055710D01*
X0027184Y0057309D02*
X0129945Y0057309D01*
X0129945Y0058907D02*
X0027184Y0058907D01*
X0027184Y0060506D02*
X0129945Y0060506D01*
X0129945Y0062105D02*
X0027184Y0062105D01*
X0028428Y0063703D02*
X0129945Y0063703D01*
X0129945Y0064433D02*
X0129945Y0051064D01*
X0129345Y0049616D01*
X0129345Y0042745D01*
X0129984Y0041201D01*
X0129984Y0037376D01*
X0123252Y0030644D01*
X0122797Y0031100D01*
X0119152Y0031100D01*
X0118037Y0029985D01*
X0109368Y0029985D01*
X0108045Y0029437D01*
X0107032Y0028424D01*
X0106384Y0027776D01*
X0106135Y0028025D01*
X0104444Y0028725D01*
X0102614Y0028725D01*
X0100924Y0028025D01*
X0099630Y0026731D01*
X0098929Y0025040D01*
X0098929Y0017210D01*
X0099630Y0015520D01*
X0100924Y0014226D01*
X0102614Y0013525D01*
X0104444Y0013525D01*
X0106135Y0014226D01*
X0107429Y0015520D01*
X0108129Y0017210D01*
X0108129Y0019339D01*
X0111576Y0022785D01*
X0118667Y0022785D01*
X0119152Y0022300D01*
X0122797Y0022300D01*
X0123597Y0023100D01*
X0125115Y0023100D01*
X0126439Y0023648D01*
X0135624Y0032833D01*
X0136636Y0033846D01*
X0137184Y0035169D01*
X0137184Y0041391D01*
X0137745Y0042745D01*
X0137745Y0049616D01*
X0137145Y0051064D01*
X0137145Y0066640D01*
X0136597Y0067964D01*
X0117184Y0087376D01*
X0117184Y0101391D01*
X0117745Y0102745D01*
X0117745Y0109616D01*
X0117106Y0111159D01*
X0115924Y0112341D01*
X0114380Y0112980D01*
X0112710Y0112980D01*
X0111166Y0112341D01*
X0109984Y0111159D01*
X0109345Y0109616D01*
X0109345Y0102745D01*
X0109984Y0101201D01*
X0109984Y0085169D01*
X0110532Y0083846D01*
X0111545Y0082833D01*
X0129945Y0064433D01*
X0129077Y0065302D02*
X0030026Y0065302D01*
X0031625Y0066900D02*
X0127478Y0066900D01*
X0125880Y0068499D02*
X0033223Y0068499D01*
X0034822Y0070097D02*
X0124281Y0070097D01*
X0122683Y0071696D02*
X0036420Y0071696D01*
X0038019Y0073294D02*
X0121084Y0073294D01*
X0119486Y0074893D02*
X0039617Y0074893D01*
X0041216Y0076491D02*
X0117887Y0076491D01*
X0116289Y0078090D02*
X0042814Y0078090D01*
X0044413Y0079688D02*
X0114690Y0079688D01*
X0113092Y0081287D02*
X0046011Y0081287D01*
X0046784Y0082885D02*
X0111493Y0082885D01*
X0110268Y0084484D02*
X0046784Y0084484D01*
X0046784Y0086082D02*
X0109984Y0086082D01*
X0109984Y0087681D02*
X0046784Y0087681D01*
X0046784Y0089279D02*
X0109984Y0089279D01*
X0109984Y0090878D02*
X0046784Y0090878D01*
X0046784Y0092476D02*
X0109984Y0092476D01*
X0109984Y0094075D02*
X0046784Y0094075D01*
X0046784Y0095673D02*
X0109984Y0095673D01*
X0109984Y0097272D02*
X0046784Y0097272D01*
X0046784Y0098870D02*
X0109984Y0098870D01*
X0109984Y0100469D02*
X0106373Y0100469D01*
X0105924Y0100020D02*
X0107106Y0101201D01*
X0107745Y0102745D01*
X0107745Y0109616D01*
X0107106Y0111159D01*
X0107099Y0111166D01*
X0107099Y0133595D01*
X0107799Y0134295D01*
X0108499Y0135986D01*
X0108499Y0143816D01*
X0107799Y0145506D01*
X0106505Y0146800D01*
X0104814Y0147501D01*
X0102984Y0147501D01*
X0101294Y0146800D01*
X0100000Y0145506D01*
X0099299Y0143816D01*
X0099299Y0135986D01*
X0100000Y0134295D01*
X0100699Y0133595D01*
X0100699Y0111874D01*
X0099984Y0111159D01*
X0099345Y0109616D01*
X0099345Y0102745D01*
X0099984Y0101201D01*
X0101166Y0100020D01*
X0102710Y0099380D01*
X0104380Y0099380D01*
X0105924Y0100020D01*
X0107464Y0102067D02*
X0109626Y0102067D01*
X0109345Y0103666D02*
X0107745Y0103666D01*
X0107745Y0105264D02*
X0109345Y0105264D01*
X0109345Y0106863D02*
X0107745Y0106863D01*
X0107745Y0108461D02*
X0109345Y0108461D01*
X0109529Y0110060D02*
X0107561Y0110060D01*
X0107099Y0111658D02*
X0110483Y0111658D01*
X0107099Y0113257D02*
X0124187Y0113257D01*
X0124334Y0113110D02*
X0123891Y0113180D01*
X0123545Y0113180D01*
X0123545Y0106180D01*
X0123545Y0099180D01*
X0123891Y0099180D01*
X0124575Y0099289D01*
X0125234Y0099503D01*
X0125851Y0099817D01*
X0126411Y0100224D01*
X0126901Y0100714D01*
X0127308Y0101274D01*
X0127623Y0101891D01*
X0127837Y0102550D01*
X0127945Y0103234D01*
X0127945Y0106180D01*
X0123545Y0106180D01*
X0123545Y0106180D01*
X0123545Y0099180D01*
X0123199Y0099180D01*
X0122515Y0099289D01*
X0121856Y0099503D01*
X0121239Y0099817D01*
X0120679Y0100224D01*
X0120189Y0100714D01*
X0119782Y0101274D01*
X0119467Y0101891D01*
X0119253Y0102550D01*
X0119145Y0103234D01*
X0119145Y0106180D01*
X0123545Y0106180D01*
X0123545Y0106180D01*
X0123545Y0106180D01*
X0127945Y0106180D01*
X0127945Y0109127D01*
X0127875Y0109569D01*
X0129345Y0108099D01*
X0129345Y0102745D01*
X0129984Y0101201D01*
X0131166Y0100020D01*
X0132710Y0099380D01*
X0134380Y0099380D01*
X0135924Y0100020D01*
X0137106Y0101201D01*
X0137745Y0102745D01*
X0137745Y0109616D01*
X0137106Y0111159D01*
X0135924Y0112341D01*
X0134380Y0112980D01*
X0133515Y0112980D01*
X0116784Y0129711D01*
X0116784Y0133280D01*
X0117799Y0134295D01*
X0118499Y0135986D01*
X0118499Y0143816D01*
X0117799Y0145506D01*
X0116505Y0146800D01*
X0114814Y0147501D01*
X0112984Y0147501D01*
X0111294Y0146800D01*
X0110000Y0145506D01*
X0109299Y0143816D01*
X0109299Y0135986D01*
X0110000Y0134295D01*
X0110384Y0133910D01*
X0110384Y0127749D01*
X0110872Y0126572D01*
X0111772Y0125672D01*
X0124334Y0113110D01*
X0123545Y0113180D02*
X0123199Y0113180D01*
X0122515Y0113072D01*
X0121856Y0112858D01*
X0121239Y0112544D01*
X0120679Y0112136D01*
X0120189Y0111647D01*
X0119782Y0111086D01*
X0119467Y0110469D01*
X0119253Y0109811D01*
X0119145Y0109127D01*
X0119145Y0106180D01*
X0123545Y0106180D01*
X0123545Y0106180D01*
X0123545Y0113180D01*
X0123545Y0111658D02*
X0123545Y0111658D01*
X0123545Y0110060D02*
X0123545Y0110060D01*
X0123545Y0108461D02*
X0123545Y0108461D01*
X0123545Y0106863D02*
X0123545Y0106863D01*
X0123545Y0105264D02*
X0123545Y0105264D01*
X0123545Y0103666D02*
X0123545Y0103666D01*
X0123545Y0102067D02*
X0123545Y0102067D01*
X0123545Y0100469D02*
X0123545Y0100469D01*
X0126656Y0100469D02*
X0130717Y0100469D01*
X0129626Y0102067D02*
X0127680Y0102067D01*
X0127945Y0103666D02*
X0129345Y0103666D01*
X0129345Y0105264D02*
X0127945Y0105264D01*
X0127945Y0106863D02*
X0129345Y0106863D01*
X0128983Y0108461D02*
X0127945Y0108461D01*
X0133238Y0113257D02*
X0136687Y0113257D01*
X0136607Y0111658D02*
X0138286Y0111658D01*
X0137561Y0110060D02*
X0139529Y0110060D01*
X0139633Y0110311D02*
X0139345Y0109616D01*
X0139345Y0102745D01*
X0139984Y0101201D01*
X0141166Y0100020D01*
X0142710Y0099380D01*
X0144380Y0099380D01*
X0145924Y0100020D01*
X0147106Y0101201D01*
X0147745Y0102745D01*
X0147745Y0109616D01*
X0147106Y0111159D01*
X0146745Y0111520D01*
X0146745Y0111561D01*
X0146258Y0112737D01*
X0126784Y0132211D01*
X0126784Y0133280D01*
X0127799Y0134295D01*
X0128499Y0135986D01*
X0128499Y0143816D01*
X0127799Y0145506D01*
X0126505Y0146800D01*
X0124814Y0147501D01*
X0122984Y0147501D01*
X0121294Y0146800D01*
X0120000Y0145506D01*
X0119299Y0143816D01*
X0119299Y0135986D01*
X0120000Y0134295D01*
X0120384Y0133910D01*
X0120384Y0130249D01*
X0120872Y0129072D01*
X0121772Y0128172D01*
X0139633Y0110311D01*
X0139345Y0108461D02*
X0137745Y0108461D01*
X0137745Y0106863D02*
X0139345Y0106863D01*
X0139345Y0105264D02*
X0137745Y0105264D01*
X0137745Y0103666D02*
X0139345Y0103666D01*
X0139626Y0102067D02*
X0137464Y0102067D01*
X0136373Y0100469D02*
X0140717Y0100469D01*
X0146373Y0100469D02*
X0149884Y0100469D01*
X0149884Y0101443D02*
X0149884Y0093619D01*
X0150372Y0092442D01*
X0151272Y0091542D01*
X0160272Y0082542D01*
X0161448Y0082055D01*
X0162721Y0082055D01*
X0163897Y0082542D01*
X0163910Y0082555D01*
X0214359Y0082555D01*
X0213759Y0081955D01*
X0212948Y0081955D01*
X0211772Y0081468D01*
X0196259Y0065955D01*
X0182948Y0065955D01*
X0181772Y0065468D01*
X0171772Y0055468D01*
X0170872Y0054568D01*
X0170384Y0053392D01*
X0170384Y0051559D01*
X0169984Y0051159D01*
X0169345Y0049616D01*
X0169345Y0042745D01*
X0169984Y0041201D01*
X0171166Y0040020D01*
X0172710Y0039380D01*
X0174380Y0039380D01*
X0175924Y0040020D01*
X0177106Y0041201D01*
X0177745Y0042745D01*
X0177745Y0049616D01*
X0177106Y0051159D01*
X0176810Y0051455D01*
X0184910Y0059555D01*
X0187482Y0059555D01*
X0187272Y0059468D01*
X0181772Y0053968D01*
X0180872Y0053068D01*
X0180384Y0051892D01*
X0180384Y0051559D01*
X0179984Y0051159D01*
X0179345Y0049616D01*
X0179345Y0042745D01*
X0179984Y0041201D01*
X0181166Y0040020D01*
X0182710Y0039380D01*
X0184380Y0039380D01*
X0185924Y0040020D01*
X0187106Y0041201D01*
X0187745Y0042745D01*
X0187745Y0049616D01*
X0187372Y0050517D01*
X0190410Y0053555D01*
X0206221Y0053555D01*
X0207397Y0054042D01*
X0208297Y0054942D01*
X0210345Y0056990D01*
X0210345Y0051520D01*
X0209984Y0051159D01*
X0209345Y0049616D01*
X0209345Y0042745D01*
X0209984Y0041201D01*
X0211166Y0040020D01*
X0212710Y0039380D01*
X0214380Y0039380D01*
X0215924Y0040020D01*
X0217106Y0041201D01*
X0217745Y0042745D01*
X0217745Y0049616D01*
X0217106Y0051159D01*
X0216745Y0051520D01*
X0216745Y0060520D01*
X0221910Y0065685D01*
X0254120Y0065685D01*
X0254335Y0065596D01*
X0262165Y0065596D01*
X0263855Y0066296D01*
X0265149Y0067590D01*
X0265850Y0069281D01*
X0265850Y0071111D01*
X0265149Y0072802D01*
X0263855Y0074096D01*
X0262165Y0074796D01*
X0254335Y0074796D01*
X0252644Y0074096D01*
X0251350Y0072802D01*
X0251053Y0072085D01*
X0247940Y0072085D01*
X0248797Y0072942D01*
X0252398Y0076543D01*
X0252644Y0076296D01*
X0254335Y0075596D01*
X0262165Y0075596D01*
X0263855Y0076296D01*
X0265149Y0077590D01*
X0265759Y0079061D01*
X0266498Y0025538D01*
X0266399Y0025637D01*
X0263868Y0027098D01*
X0261046Y0027854D01*
X0258123Y0027854D01*
X0255300Y0027098D01*
X0252769Y0025637D01*
X0250703Y0023570D01*
X0249242Y0021039D01*
X0248485Y0018216D01*
X0248485Y0015294D01*
X0249242Y0012471D01*
X0250703Y0009940D01*
X0250707Y0009935D01*
X0013355Y0010053D01*
X0012499Y0152025D01*
X0013703Y0149940D01*
X0015769Y0147874D01*
X0018300Y0146412D01*
X0021123Y0145656D01*
X0024046Y0145656D01*
X0026868Y0146412D01*
X0029399Y0147874D01*
X0031466Y0149940D01*
X0032927Y0152471D01*
X0033684Y0155294D01*
X0033684Y0158216D01*
X0032927Y0161039D01*
X0031466Y0163570D01*
X0029399Y0165637D01*
X0028694Y0166044D01*
X0254840Y0164044D01*
X0253269Y0163137D01*
X0251203Y0161070D01*
X0249742Y0158539D01*
X0248985Y0155716D01*
X0248985Y0152794D01*
X0249742Y0149971D01*
X0251203Y0147440D01*
X0253269Y0145374D01*
X0255800Y0143912D01*
X0258623Y0143156D01*
X0261546Y0143156D01*
X0264368Y0143912D01*
X0264859Y0144195D01*
X0265014Y0132937D01*
X0263855Y0134096D01*
X0262165Y0134796D01*
X0254335Y0134796D01*
X0252644Y0134096D01*
X0251944Y0133396D01*
X0227389Y0133396D01*
X0226213Y0132909D01*
X0211772Y0118468D01*
X0210872Y0117568D01*
X0210384Y0116392D01*
X0210384Y0111559D01*
X0209984Y0111159D01*
X0209345Y0109616D01*
X0209345Y0102745D01*
X0209984Y0101201D01*
X0211166Y0100020D01*
X0212710Y0099380D01*
X0214380Y0099380D01*
X0215924Y0100020D01*
X0217106Y0101201D01*
X0217745Y0102745D01*
X0217745Y0109616D01*
X0217106Y0111159D01*
X0216784Y0111481D01*
X0216784Y0114430D01*
X0229351Y0126996D01*
X0251944Y0126996D01*
X0252644Y0126296D01*
X0254335Y0125596D01*
X0262165Y0125596D01*
X0263855Y0126296D01*
X0265089Y0127530D01*
X0265155Y0122789D01*
X0265149Y0122802D01*
X0263855Y0124096D01*
X0262165Y0124796D01*
X0254335Y0124796D01*
X0252644Y0124096D01*
X0251944Y0123396D01*
X0228889Y0123396D01*
X0227713Y0122909D01*
X0221272Y0116468D01*
X0220372Y0115568D01*
X0219884Y0114392D01*
X0219884Y0110918D01*
X0219345Y0109616D01*
X0219345Y0102745D01*
X0219984Y0101201D01*
X0221166Y0100020D01*
X0222710Y0099380D01*
X0224380Y0099380D01*
X0225924Y0100020D01*
X0227106Y0101201D01*
X0227745Y0102745D01*
X0227745Y0109616D01*
X0227106Y0111159D01*
X0226284Y0111981D01*
X0226284Y0112430D01*
X0230851Y0116996D01*
X0251944Y0116996D01*
X0252644Y0116296D01*
X0254335Y0115596D01*
X0262165Y0115596D01*
X0263855Y0116296D01*
X0265149Y0117590D01*
X0265224Y0117770D01*
X0265297Y0112444D01*
X0265149Y0112802D01*
X0263855Y0114096D01*
X0262165Y0114796D01*
X0254335Y0114796D01*
X0252644Y0114096D01*
X0251944Y0113396D01*
X0249889Y0113396D01*
X0248713Y0112909D01*
X0232759Y0096955D01*
X0169910Y0096955D01*
X0166784Y0100081D01*
X0166784Y0100880D01*
X0167106Y0101201D01*
X0167745Y0102745D01*
X0167745Y0109616D01*
X0167106Y0111159D01*
X0165924Y0112341D01*
X0164380Y0112980D01*
X0162710Y0112980D01*
X0161166Y0112341D01*
X0159984Y0111159D01*
X0159345Y0109616D01*
X0159345Y0102745D01*
X0159984Y0101201D01*
X0160384Y0100801D01*
X0160384Y0098119D01*
X0160872Y0096942D01*
X0161772Y0096042D01*
X0167272Y0090542D01*
X0168448Y0090055D01*
X0170221Y0090055D01*
X0171397Y0090542D01*
X0171410Y0090555D01*
X0234721Y0090555D01*
X0235897Y0091042D01*
X0236797Y0091942D01*
X0251851Y0106996D01*
X0251944Y0106996D01*
X0252644Y0106296D01*
X0254335Y0105596D01*
X0262165Y0105596D01*
X0263855Y0106296D01*
X0265149Y0107590D01*
X0265358Y0108093D01*
X0265440Y0102099D01*
X0265149Y0102802D01*
X0263855Y0104096D01*
X0262165Y0104796D01*
X0254335Y0104796D01*
X0252644Y0104096D01*
X0251350Y0102802D01*
X0251169Y0102366D01*
X0237759Y0088955D01*
X0162910Y0088955D01*
X0156284Y0095581D01*
X0156284Y0100380D01*
X0157106Y0101201D01*
X0157745Y0102745D01*
X0157745Y0109616D01*
X0157106Y0111159D01*
X0155924Y0112341D01*
X0154380Y0112980D01*
X0152710Y0112980D01*
X0151166Y0112341D01*
X0149984Y0111159D01*
X0149345Y0109616D01*
X0149345Y0102745D01*
X0149884Y0101443D01*
X0149626Y0102067D02*
X0147464Y0102067D01*
X0147745Y0103666D02*
X0149345Y0103666D01*
X0149345Y0105264D02*
X0147745Y0105264D01*
X0147745Y0106863D02*
X0149345Y0106863D01*
X0149345Y0108461D02*
X0147745Y0108461D01*
X0147561Y0110060D02*
X0149529Y0110060D01*
X0150483Y0111658D02*
X0146705Y0111658D01*
X0145738Y0113257D02*
X0185687Y0113257D01*
X0185924Y0112341D02*
X0184380Y0112980D01*
X0182710Y0112980D01*
X0181166Y0112341D01*
X0179984Y0111159D01*
X0179345Y0109616D01*
X0179345Y0102745D01*
X0179984Y0101201D01*
X0181166Y0100020D01*
X0182710Y0099380D01*
X0184380Y0099380D01*
X0185924Y0100020D01*
X0187106Y0101201D01*
X0187745Y0102745D01*
X0187745Y0109616D01*
X0187106Y0111159D01*
X0185924Y0112341D01*
X0186607Y0111658D02*
X0187286Y0111658D01*
X0187561Y0110060D02*
X0188884Y0110060D01*
X0189345Y0109599D02*
X0189345Y0102745D01*
X0189984Y0101201D01*
X0191166Y0100020D01*
X0192710Y0099380D01*
X0194380Y0099380D01*
X0195924Y0100020D01*
X0197106Y0101201D01*
X0197745Y0102745D01*
X0197745Y0109616D01*
X0197106Y0111159D01*
X0195924Y0112341D01*
X0195463Y0112532D01*
X0195358Y0112637D01*
X0195358Y0112637D01*
X0187797Y0120198D01*
X0186897Y0121098D01*
X0185721Y0121585D01*
X0174784Y0121585D01*
X0174784Y0124315D01*
X0175425Y0123674D01*
X0176888Y0123069D01*
X0178470Y0123069D01*
X0179932Y0123674D01*
X0181051Y0124793D01*
X0181657Y0126255D01*
X0181657Y0130820D01*
X0181659Y0130825D01*
X0182653Y0129830D01*
X0185556Y0128628D01*
X0188699Y0128628D01*
X0191602Y0129830D01*
X0193824Y0132052D01*
X0195027Y0134956D01*
X0195027Y0138098D01*
X0193824Y0141001D01*
X0193141Y0141685D01*
X0193759Y0141685D01*
X0200345Y0135099D01*
X0200345Y0111520D01*
X0199984Y0111159D01*
X0199345Y0109616D01*
X0199345Y0102745D01*
X0199984Y0101201D01*
X0201166Y0100020D01*
X0202710Y0099380D01*
X0204380Y0099380D01*
X0205924Y0100020D01*
X0207106Y0101201D01*
X0207745Y0102745D01*
X0207745Y0109616D01*
X0207106Y0111159D01*
X0206745Y0111520D01*
X0206745Y0137061D01*
X0206258Y0138237D01*
X0197797Y0146698D01*
X0196897Y0147598D01*
X0195721Y0148085D01*
X0193051Y0148085D01*
X0194842Y0149876D01*
X0196228Y0153221D01*
X0196228Y0156841D01*
X0194842Y0160185D01*
X0192282Y0162745D01*
X0188938Y0164131D01*
X0185318Y0164131D01*
X0181973Y0162745D01*
X0179413Y0160185D01*
X0178028Y0156841D01*
X0178028Y0153221D01*
X0179413Y0149876D01*
X0181395Y0147894D01*
X0180681Y0147598D01*
X0177457Y0144374D01*
X0176783Y0145049D01*
X0175320Y0145654D01*
X0173738Y0145654D01*
X0172276Y0145049D01*
X0171380Y0144152D01*
X0170483Y0145049D01*
X0169021Y0145654D01*
X0167439Y0145654D01*
X0165977Y0145049D01*
X0164858Y0143930D01*
X0164252Y0142468D01*
X0164252Y0136129D01*
X0164341Y0135915D01*
X0164102Y0135877D01*
X0163531Y0135692D01*
X0163531Y0138098D01*
X0162328Y0141001D01*
X0160106Y0143223D01*
X0157203Y0144426D01*
X0154060Y0144426D01*
X0151157Y0143223D01*
X0148935Y0141001D01*
X0147732Y0138098D01*
X0147732Y0134956D01*
X0148935Y0132052D01*
X0151157Y0129830D01*
X0154060Y0128628D01*
X0157203Y0128628D01*
X0160106Y0129830D01*
X0160902Y0130626D01*
X0160902Y0126718D01*
X0161005Y0126068D01*
X0161209Y0125443D01*
X0161507Y0124857D01*
X0161894Y0124325D01*
X0162359Y0123860D01*
X0162891Y0123473D01*
X0163477Y0123175D01*
X0164102Y0122971D01*
X0164752Y0122869D01*
X0165080Y0122869D01*
X0165080Y0131802D01*
X0165080Y0131802D01*
X0165080Y0122869D01*
X0165409Y0122869D01*
X0166059Y0122971D01*
X0166684Y0123175D01*
X0167270Y0123473D01*
X0167802Y0123860D01*
X0168267Y0124325D01*
X0168355Y0124445D01*
X0168384Y0124416D01*
X0168384Y0119249D01*
X0168872Y0118072D01*
X0169772Y0117172D01*
X0171272Y0115672D01*
X0172448Y0115185D01*
X0183759Y0115185D01*
X0189345Y0109599D01*
X0189345Y0108461D02*
X0187745Y0108461D01*
X0187745Y0106863D02*
X0189345Y0106863D01*
X0189345Y0105264D02*
X0187745Y0105264D01*
X0187745Y0103666D02*
X0189345Y0103666D01*
X0189626Y0102067D02*
X0187464Y0102067D01*
X0186373Y0100469D02*
X0190717Y0100469D01*
X0196373Y0100469D02*
X0200717Y0100469D01*
X0199626Y0102067D02*
X0197464Y0102067D01*
X0197745Y0103666D02*
X0199345Y0103666D01*
X0199345Y0105264D02*
X0197745Y0105264D01*
X0197745Y0106863D02*
X0199345Y0106863D01*
X0199345Y0108461D02*
X0197745Y0108461D01*
X0197561Y0110060D02*
X0199529Y0110060D01*
X0200345Y0111658D02*
X0196607Y0111658D01*
X0194738Y0113257D02*
X0200345Y0113257D01*
X0200345Y0114855D02*
X0193139Y0114855D01*
X0191541Y0116454D02*
X0200345Y0116454D01*
X0200345Y0118052D02*
X0189942Y0118052D01*
X0188344Y0119651D02*
X0200345Y0119651D01*
X0200345Y0121249D02*
X0186531Y0121249D01*
X0187797Y0120198D02*
X0187797Y0120198D01*
X0184089Y0114855D02*
X0144139Y0114855D01*
X0142541Y0116454D02*
X0170490Y0116454D01*
X0169772Y0117172D02*
X0169772Y0117172D01*
X0168891Y0118052D02*
X0140942Y0118052D01*
X0139344Y0119651D02*
X0168384Y0119651D01*
X0168384Y0121249D02*
X0137745Y0121249D01*
X0136147Y0122848D02*
X0168384Y0122848D01*
X0165080Y0124446D02*
X0165080Y0124446D01*
X0165080Y0126045D02*
X0165080Y0126045D01*
X0165080Y0127643D02*
X0165080Y0127643D01*
X0165080Y0129242D02*
X0165080Y0129242D01*
X0165080Y0130840D02*
X0165080Y0130840D01*
X0160902Y0129242D02*
X0158686Y0129242D01*
X0160902Y0127643D02*
X0131351Y0127643D01*
X0132950Y0126045D02*
X0161013Y0126045D01*
X0161805Y0124446D02*
X0134548Y0124446D01*
X0130293Y0119651D02*
X0126844Y0119651D01*
X0125245Y0121249D02*
X0128694Y0121249D01*
X0127096Y0122848D02*
X0123647Y0122848D01*
X0122048Y0124446D02*
X0125497Y0124446D01*
X0123899Y0126045D02*
X0120450Y0126045D01*
X0118851Y0127643D02*
X0122300Y0127643D01*
X0120801Y0129242D02*
X0117253Y0129242D01*
X0116784Y0130840D02*
X0120384Y0130840D01*
X0120384Y0132439D02*
X0116784Y0132439D01*
X0117541Y0134038D02*
X0120257Y0134038D01*
X0119444Y0135636D02*
X0118354Y0135636D01*
X0118499Y0137235D02*
X0119299Y0137235D01*
X0119299Y0138833D02*
X0118499Y0138833D01*
X0118499Y0140432D02*
X0119299Y0140432D01*
X0119299Y0142030D02*
X0118499Y0142030D01*
X0118499Y0143629D02*
X0119299Y0143629D01*
X0119884Y0145227D02*
X0117915Y0145227D01*
X0116444Y0146826D02*
X0121354Y0146826D01*
X0126444Y0146826D02*
X0151661Y0146826D01*
X0150477Y0147316D02*
X0153821Y0145931D01*
X0157442Y0145931D01*
X0160786Y0147316D01*
X0163346Y0149876D01*
X0164732Y0153221D01*
X0164732Y0156841D01*
X0163346Y0160185D01*
X0160786Y0162745D01*
X0157442Y0164131D01*
X0153821Y0164131D01*
X0150477Y0162745D01*
X0147917Y0160185D01*
X0146532Y0156841D01*
X0146532Y0153221D01*
X0147917Y0149876D01*
X0150477Y0147316D01*
X0149369Y0148424D02*
X0029950Y0148424D01*
X0031514Y0150023D02*
X0147856Y0150023D01*
X0147194Y0151621D02*
X0032436Y0151621D01*
X0033128Y0153220D02*
X0146532Y0153220D01*
X0146532Y0154818D02*
X0033556Y0154818D01*
X0033684Y0156417D02*
X0146532Y0156417D01*
X0147018Y0158015D02*
X0033684Y0158015D01*
X0033309Y0159614D02*
X0147680Y0159614D01*
X0148944Y0161212D02*
X0032827Y0161212D01*
X0031904Y0162811D02*
X0150635Y0162811D01*
X0160628Y0162811D02*
X0182131Y0162811D01*
X0180440Y0161212D02*
X0162319Y0161212D01*
X0163583Y0159614D02*
X0179176Y0159614D01*
X0178514Y0158015D02*
X0164245Y0158015D01*
X0164732Y0156417D02*
X0178028Y0156417D01*
X0178028Y0154818D02*
X0164732Y0154818D01*
X0164731Y0153220D02*
X0178028Y0153220D01*
X0178690Y0151621D02*
X0164069Y0151621D01*
X0163407Y0150023D02*
X0179352Y0150023D01*
X0180865Y0148424D02*
X0161894Y0148424D01*
X0159602Y0146826D02*
X0179909Y0146826D01*
X0178310Y0145227D02*
X0176352Y0145227D01*
X0172707Y0145227D02*
X0170053Y0145227D01*
X0166407Y0145227D02*
X0127915Y0145227D01*
X0128499Y0143629D02*
X0152135Y0143629D01*
X0149964Y0142030D02*
X0128499Y0142030D01*
X0128499Y0140432D02*
X0148699Y0140432D01*
X0148037Y0138833D02*
X0128499Y0138833D01*
X0128499Y0137235D02*
X0147732Y0137235D01*
X0147732Y0135636D02*
X0128354Y0135636D01*
X0127541Y0134038D02*
X0148113Y0134038D01*
X0148775Y0132439D02*
X0126784Y0132439D01*
X0128154Y0130840D02*
X0150147Y0130840D01*
X0152577Y0129242D02*
X0129753Y0129242D01*
X0117793Y0119651D02*
X0107099Y0119651D01*
X0107099Y0121249D02*
X0116194Y0121249D01*
X0114596Y0122848D02*
X0107099Y0122848D01*
X0107099Y0124446D02*
X0112997Y0124446D01*
X0111772Y0125672D02*
X0111772Y0125672D01*
X0111399Y0126045D02*
X0107099Y0126045D01*
X0107099Y0127643D02*
X0110428Y0127643D01*
X0110384Y0129242D02*
X0107099Y0129242D01*
X0107099Y0130840D02*
X0110384Y0130840D01*
X0110384Y0132439D02*
X0107099Y0132439D01*
X0107541Y0134038D02*
X0110257Y0134038D01*
X0109444Y0135636D02*
X0108354Y0135636D01*
X0108499Y0137235D02*
X0109299Y0137235D01*
X0109299Y0138833D02*
X0108499Y0138833D01*
X0108499Y0140432D02*
X0109299Y0140432D01*
X0109299Y0142030D02*
X0108499Y0142030D01*
X0108499Y0143629D02*
X0109299Y0143629D01*
X0109884Y0145227D02*
X0107915Y0145227D01*
X0106444Y0146826D02*
X0111354Y0146826D01*
X0101354Y0146826D02*
X0096444Y0146826D01*
X0096505Y0146800D02*
X0094814Y0147501D01*
X0092984Y0147501D01*
X0091294Y0146800D01*
X0090000Y0145506D01*
X0089299Y0143816D01*
X0089299Y0135986D01*
X0090000Y0134295D01*
X0090699Y0133595D01*
X0090699Y0111874D01*
X0089984Y0111159D01*
X0089345Y0109616D01*
X0089345Y0102745D01*
X0089984Y0101201D01*
X0091166Y0100020D01*
X0092710Y0099380D01*
X0094380Y0099380D01*
X0095924Y0100020D01*
X0097106Y0101201D01*
X0097745Y0102745D01*
X0097745Y0109616D01*
X0097106Y0111159D01*
X0097099Y0111166D01*
X0097099Y0133595D01*
X0097799Y0134295D01*
X0098499Y0135986D01*
X0098499Y0143816D01*
X0097799Y0145506D01*
X0096505Y0146800D01*
X0097915Y0145227D02*
X0099884Y0145227D01*
X0099299Y0143629D02*
X0098499Y0143629D01*
X0098499Y0142030D02*
X0099299Y0142030D01*
X0099299Y0140432D02*
X0098499Y0140432D01*
X0098499Y0138833D02*
X0099299Y0138833D01*
X0099299Y0137235D02*
X0098499Y0137235D01*
X0098354Y0135636D02*
X0099444Y0135636D01*
X0100257Y0134038D02*
X0097541Y0134038D01*
X0097099Y0132439D02*
X0100699Y0132439D01*
X0100699Y0130840D02*
X0097099Y0130840D01*
X0097099Y0129242D02*
X0100699Y0129242D01*
X0100699Y0127643D02*
X0097099Y0127643D01*
X0097099Y0126045D02*
X0100699Y0126045D01*
X0100699Y0124446D02*
X0097099Y0124446D01*
X0097099Y0122848D02*
X0100699Y0122848D01*
X0100699Y0121249D02*
X0097099Y0121249D01*
X0097099Y0119651D02*
X0100699Y0119651D01*
X0100699Y0118052D02*
X0097099Y0118052D01*
X0097099Y0116454D02*
X0100699Y0116454D01*
X0100699Y0114855D02*
X0097099Y0114855D01*
X0097099Y0113257D02*
X0100699Y0113257D01*
X0100483Y0111658D02*
X0097099Y0111658D01*
X0097561Y0110060D02*
X0099529Y0110060D01*
X0099345Y0108461D02*
X0097745Y0108461D01*
X0097745Y0106863D02*
X0099345Y0106863D01*
X0099345Y0105264D02*
X0097745Y0105264D01*
X0097745Y0103666D02*
X0099345Y0103666D01*
X0099626Y0102067D02*
X0097464Y0102067D01*
X0096373Y0100469D02*
X0100717Y0100469D01*
X0090717Y0100469D02*
X0086373Y0100469D01*
X0085924Y0100020D02*
X0087106Y0101201D01*
X0087745Y0102745D01*
X0087745Y0109616D01*
X0087106Y0111159D01*
X0087099Y0111166D01*
X0087099Y0133595D01*
X0087799Y0134295D01*
X0088499Y0135986D01*
X0088499Y0143816D01*
X0087799Y0145506D01*
X0086505Y0146800D01*
X0084814Y0147501D01*
X0082984Y0147501D01*
X0081294Y0146800D01*
X0080000Y0145506D01*
X0079299Y0143816D01*
X0079299Y0135986D01*
X0080000Y0134295D01*
X0080699Y0133595D01*
X0080699Y0111874D01*
X0079984Y0111159D01*
X0079345Y0109616D01*
X0079345Y0102745D01*
X0079984Y0101201D01*
X0081166Y0100020D01*
X0082710Y0099380D01*
X0084380Y0099380D01*
X0085924Y0100020D01*
X0087464Y0102067D02*
X0089626Y0102067D01*
X0089345Y0103666D02*
X0087745Y0103666D01*
X0087745Y0105264D02*
X0089345Y0105264D01*
X0089345Y0106863D02*
X0087745Y0106863D01*
X0087745Y0108461D02*
X0089345Y0108461D01*
X0089529Y0110060D02*
X0087561Y0110060D01*
X0087099Y0111658D02*
X0090483Y0111658D01*
X0090699Y0113257D02*
X0087099Y0113257D01*
X0087099Y0114855D02*
X0090699Y0114855D01*
X0090699Y0116454D02*
X0087099Y0116454D01*
X0087099Y0118052D02*
X0090699Y0118052D01*
X0090699Y0119651D02*
X0087099Y0119651D01*
X0087099Y0121249D02*
X0090699Y0121249D01*
X0090699Y0122848D02*
X0087099Y0122848D01*
X0087099Y0124446D02*
X0090699Y0124446D01*
X0090699Y0126045D02*
X0087099Y0126045D01*
X0087099Y0127643D02*
X0090699Y0127643D01*
X0090699Y0129242D02*
X0087099Y0129242D01*
X0087099Y0130840D02*
X0090699Y0130840D01*
X0090699Y0132439D02*
X0087099Y0132439D01*
X0087541Y0134038D02*
X0090257Y0134038D01*
X0089444Y0135636D02*
X0088354Y0135636D01*
X0088499Y0137235D02*
X0089299Y0137235D01*
X0089299Y0138833D02*
X0088499Y0138833D01*
X0088499Y0140432D02*
X0089299Y0140432D01*
X0089299Y0142030D02*
X0088499Y0142030D01*
X0088499Y0143629D02*
X0089299Y0143629D01*
X0089884Y0145227D02*
X0087915Y0145227D01*
X0086444Y0146826D02*
X0091354Y0146826D01*
X0081354Y0146826D02*
X0076444Y0146826D01*
X0076505Y0146800D02*
X0074814Y0147501D01*
X0072984Y0147501D01*
X0071294Y0146800D01*
X0070000Y0145506D01*
X0069299Y0143816D01*
X0069299Y0135986D01*
X0070000Y0134295D01*
X0070699Y0133595D01*
X0070699Y0111874D01*
X0069984Y0111159D01*
X0069345Y0109616D01*
X0069345Y0102745D01*
X0069984Y0101201D01*
X0071166Y0100020D01*
X0072710Y0099380D01*
X0074380Y0099380D01*
X0075924Y0100020D01*
X0077106Y0101201D01*
X0077745Y0102745D01*
X0077745Y0109616D01*
X0077106Y0111159D01*
X0077099Y0111166D01*
X0077099Y0133595D01*
X0077799Y0134295D01*
X0078499Y0135986D01*
X0078499Y0143816D01*
X0077799Y0145506D01*
X0076505Y0146800D01*
X0077915Y0145227D02*
X0079884Y0145227D01*
X0079299Y0143629D02*
X0078499Y0143629D01*
X0078499Y0142030D02*
X0079299Y0142030D01*
X0079299Y0140432D02*
X0078499Y0140432D01*
X0078499Y0138833D02*
X0079299Y0138833D01*
X0079299Y0137235D02*
X0078499Y0137235D01*
X0078354Y0135636D02*
X0079444Y0135636D01*
X0080257Y0134038D02*
X0077541Y0134038D01*
X0077099Y0132439D02*
X0080699Y0132439D01*
X0080699Y0130840D02*
X0077099Y0130840D01*
X0077099Y0129242D02*
X0080699Y0129242D01*
X0080699Y0127643D02*
X0077099Y0127643D01*
X0077099Y0126045D02*
X0080699Y0126045D01*
X0080699Y0124446D02*
X0077099Y0124446D01*
X0077099Y0122848D02*
X0080699Y0122848D01*
X0080699Y0121249D02*
X0077099Y0121249D01*
X0077099Y0119651D02*
X0080699Y0119651D01*
X0080699Y0118052D02*
X0077099Y0118052D01*
X0077099Y0116454D02*
X0080699Y0116454D01*
X0080699Y0114855D02*
X0077099Y0114855D01*
X0077099Y0113257D02*
X0080699Y0113257D01*
X0080483Y0111658D02*
X0077099Y0111658D01*
X0077561Y0110060D02*
X0079529Y0110060D01*
X0079345Y0108461D02*
X0077745Y0108461D01*
X0077745Y0106863D02*
X0079345Y0106863D01*
X0079345Y0105264D02*
X0077745Y0105264D01*
X0077745Y0103666D02*
X0079345Y0103666D01*
X0079626Y0102067D02*
X0077464Y0102067D01*
X0076373Y0100469D02*
X0080717Y0100469D01*
X0070717Y0100469D02*
X0066373Y0100469D01*
X0065924Y0100020D02*
X0067106Y0101201D01*
X0067745Y0102745D01*
X0067745Y0109616D01*
X0067106Y0111159D01*
X0067099Y0111166D01*
X0067099Y0133595D01*
X0067799Y0134295D01*
X0068499Y0135986D01*
X0068499Y0143816D01*
X0067799Y0145506D01*
X0066505Y0146800D01*
X0064814Y0147501D01*
X0062984Y0147501D01*
X0061294Y0146800D01*
X0060000Y0145506D01*
X0059299Y0143816D01*
X0059299Y0135986D01*
X0060000Y0134295D01*
X0060699Y0133595D01*
X0060699Y0111874D01*
X0059984Y0111159D01*
X0059345Y0109616D01*
X0059345Y0102745D01*
X0059984Y0101201D01*
X0061166Y0100020D01*
X0062710Y0099380D01*
X0064380Y0099380D01*
X0065924Y0100020D01*
X0067464Y0102067D02*
X0069626Y0102067D01*
X0069345Y0103666D02*
X0067745Y0103666D01*
X0067745Y0105264D02*
X0069345Y0105264D01*
X0069345Y0106863D02*
X0067745Y0106863D01*
X0067745Y0108461D02*
X0069345Y0108461D01*
X0069529Y0110060D02*
X0067561Y0110060D01*
X0067099Y0111658D02*
X0070483Y0111658D01*
X0070699Y0113257D02*
X0067099Y0113257D01*
X0067099Y0114855D02*
X0070699Y0114855D01*
X0070699Y0116454D02*
X0067099Y0116454D01*
X0067099Y0118052D02*
X0070699Y0118052D01*
X0070699Y0119651D02*
X0067099Y0119651D01*
X0067099Y0121249D02*
X0070699Y0121249D01*
X0070699Y0122848D02*
X0067099Y0122848D01*
X0067099Y0124446D02*
X0070699Y0124446D01*
X0070699Y0126045D02*
X0067099Y0126045D01*
X0067099Y0127643D02*
X0070699Y0127643D01*
X0070699Y0129242D02*
X0067099Y0129242D01*
X0067099Y0130840D02*
X0070699Y0130840D01*
X0070699Y0132439D02*
X0067099Y0132439D01*
X0067541Y0134038D02*
X0070257Y0134038D01*
X0069444Y0135636D02*
X0068354Y0135636D01*
X0068499Y0137235D02*
X0069299Y0137235D01*
X0069299Y0138833D02*
X0068499Y0138833D01*
X0068499Y0140432D02*
X0069299Y0140432D01*
X0069299Y0142030D02*
X0068499Y0142030D01*
X0068499Y0143629D02*
X0069299Y0143629D01*
X0069884Y0145227D02*
X0067915Y0145227D01*
X0066444Y0146826D02*
X0071354Y0146826D01*
X0061354Y0146826D02*
X0056444Y0146826D01*
X0056505Y0146800D02*
X0054814Y0147501D01*
X0052984Y0147501D01*
X0051294Y0146800D01*
X0050000Y0145506D01*
X0049299Y0143816D01*
X0049299Y0135986D01*
X0050000Y0134295D01*
X0050699Y0133595D01*
X0050699Y0111874D01*
X0049984Y0111159D01*
X0049345Y0109616D01*
X0049345Y0102745D01*
X0049984Y0101201D01*
X0051166Y0100020D01*
X0052710Y0099380D01*
X0054380Y0099380D01*
X0055924Y0100020D01*
X0057106Y0101201D01*
X0057745Y0102745D01*
X0057745Y0109616D01*
X0057106Y0111159D01*
X0057099Y0111166D01*
X0057099Y0133595D01*
X0057799Y0134295D01*
X0058499Y0135986D01*
X0058499Y0143816D01*
X0057799Y0145506D01*
X0056505Y0146800D01*
X0057915Y0145227D02*
X0059884Y0145227D01*
X0059299Y0143629D02*
X0058499Y0143629D01*
X0058499Y0142030D02*
X0059299Y0142030D01*
X0059299Y0140432D02*
X0058499Y0140432D01*
X0058499Y0138833D02*
X0059299Y0138833D01*
X0059299Y0137235D02*
X0058499Y0137235D01*
X0058354Y0135636D02*
X0059444Y0135636D01*
X0060257Y0134038D02*
X0057541Y0134038D01*
X0057099Y0132439D02*
X0060699Y0132439D01*
X0060699Y0130840D02*
X0057099Y0130840D01*
X0057099Y0129242D02*
X0060699Y0129242D01*
X0060699Y0127643D02*
X0057099Y0127643D01*
X0057099Y0126045D02*
X0060699Y0126045D01*
X0060699Y0124446D02*
X0057099Y0124446D01*
X0057099Y0122848D02*
X0060699Y0122848D01*
X0060699Y0121249D02*
X0057099Y0121249D01*
X0057099Y0119651D02*
X0060699Y0119651D01*
X0060699Y0118052D02*
X0057099Y0118052D01*
X0057099Y0116454D02*
X0060699Y0116454D01*
X0060699Y0114855D02*
X0057099Y0114855D01*
X0057099Y0113257D02*
X0060699Y0113257D01*
X0060483Y0111658D02*
X0057099Y0111658D01*
X0057561Y0110060D02*
X0059529Y0110060D01*
X0059345Y0108461D02*
X0057745Y0108461D01*
X0057745Y0106863D02*
X0059345Y0106863D01*
X0059345Y0105264D02*
X0057745Y0105264D01*
X0057745Y0103666D02*
X0059345Y0103666D01*
X0059626Y0102067D02*
X0057464Y0102067D01*
X0056373Y0100469D02*
X0060717Y0100469D01*
X0050717Y0100469D02*
X0046784Y0100469D01*
X0047464Y0102067D02*
X0049626Y0102067D01*
X0049345Y0103666D02*
X0047745Y0103666D01*
X0047745Y0105264D02*
X0049345Y0105264D01*
X0049345Y0106863D02*
X0047745Y0106863D01*
X0047745Y0108461D02*
X0049345Y0108461D01*
X0049529Y0110060D02*
X0047561Y0110060D01*
X0046607Y0111658D02*
X0050483Y0111658D01*
X0050699Y0113257D02*
X0012733Y0113257D01*
X0012723Y0114855D02*
X0050699Y0114855D01*
X0050699Y0116454D02*
X0012714Y0116454D01*
X0012704Y0118052D02*
X0050699Y0118052D01*
X0050699Y0119651D02*
X0012694Y0119651D01*
X0012685Y0121249D02*
X0050699Y0121249D01*
X0050699Y0122848D02*
X0012675Y0122848D01*
X0012665Y0124446D02*
X0050699Y0124446D01*
X0050699Y0126045D02*
X0012656Y0126045D01*
X0012646Y0127643D02*
X0050699Y0127643D01*
X0050699Y0129242D02*
X0012636Y0129242D01*
X0012627Y0130840D02*
X0050699Y0130840D01*
X0050699Y0132439D02*
X0012617Y0132439D01*
X0012608Y0134038D02*
X0050257Y0134038D01*
X0049444Y0135636D02*
X0012598Y0135636D01*
X0012588Y0137235D02*
X0049299Y0137235D01*
X0049299Y0138833D02*
X0012579Y0138833D01*
X0012569Y0140432D02*
X0049299Y0140432D01*
X0049299Y0142030D02*
X0012559Y0142030D01*
X0012550Y0143629D02*
X0049299Y0143629D01*
X0049884Y0145227D02*
X0012540Y0145227D01*
X0012530Y0146826D02*
X0017584Y0146826D01*
X0015219Y0148424D02*
X0012521Y0148424D01*
X0012511Y0150023D02*
X0013655Y0150023D01*
X0012732Y0151621D02*
X0012501Y0151621D01*
X0027584Y0146826D02*
X0051354Y0146826D01*
X0032774Y0166008D02*
X0028757Y0166008D01*
X0030627Y0164409D02*
X0213506Y0164409D01*
X0195741Y0158015D02*
X0249601Y0158015D01*
X0249173Y0156417D02*
X0196228Y0156417D01*
X0196228Y0154818D02*
X0248985Y0154818D01*
X0248985Y0153220D02*
X0196227Y0153220D01*
X0195565Y0151621D02*
X0249299Y0151621D01*
X0249728Y0150023D02*
X0194903Y0150023D01*
X0193390Y0148424D02*
X0250635Y0148424D01*
X0251817Y0146826D02*
X0197669Y0146826D01*
X0199268Y0145227D02*
X0253523Y0145227D01*
X0256859Y0143629D02*
X0200866Y0143629D01*
X0202465Y0142030D02*
X0264889Y0142030D01*
X0264911Y0140432D02*
X0204063Y0140432D01*
X0205662Y0138833D02*
X0264933Y0138833D01*
X0264955Y0137235D02*
X0206673Y0137235D01*
X0206745Y0135636D02*
X0264977Y0135636D01*
X0264999Y0134038D02*
X0263914Y0134038D01*
X0263248Y0126045D02*
X0265110Y0126045D01*
X0265132Y0124446D02*
X0263009Y0124446D01*
X0265103Y0122848D02*
X0265154Y0122848D01*
X0265242Y0116454D02*
X0264013Y0116454D01*
X0265264Y0114855D02*
X0228710Y0114855D01*
X0227112Y0113257D02*
X0249553Y0113257D01*
X0247462Y0111658D02*
X0226607Y0111658D01*
X0227561Y0110060D02*
X0245864Y0110060D01*
X0244265Y0108461D02*
X0227745Y0108461D01*
X0227745Y0106863D02*
X0242667Y0106863D01*
X0241068Y0105264D02*
X0227745Y0105264D01*
X0227745Y0103666D02*
X0239470Y0103666D01*
X0237871Y0102067D02*
X0227464Y0102067D01*
X0226373Y0100469D02*
X0236273Y0100469D01*
X0234674Y0098870D02*
X0167995Y0098870D01*
X0166784Y0100469D02*
X0170717Y0100469D01*
X0171166Y0100020D02*
X0169984Y0101201D01*
X0169345Y0102745D01*
X0169345Y0109616D01*
X0169984Y0111159D01*
X0171166Y0112341D01*
X0172710Y0112980D01*
X0174380Y0112980D01*
X0175924Y0112341D01*
X0177106Y0111159D01*
X0177745Y0109616D01*
X0177745Y0102745D01*
X0177106Y0101201D01*
X0175924Y0100020D01*
X0174380Y0099380D01*
X0172710Y0099380D01*
X0171166Y0100020D01*
X0169626Y0102067D02*
X0167464Y0102067D01*
X0167745Y0103666D02*
X0169345Y0103666D01*
X0169345Y0105264D02*
X0167745Y0105264D01*
X0167745Y0106863D02*
X0169345Y0106863D01*
X0169345Y0108461D02*
X0167745Y0108461D01*
X0167561Y0110060D02*
X0169529Y0110060D01*
X0170483Y0111658D02*
X0166607Y0111658D01*
X0160483Y0111658D02*
X0156607Y0111658D01*
X0157561Y0110060D02*
X0159529Y0110060D01*
X0159345Y0108461D02*
X0157745Y0108461D01*
X0157745Y0106863D02*
X0159345Y0106863D01*
X0159345Y0105264D02*
X0157745Y0105264D01*
X0157745Y0103666D02*
X0159345Y0103666D01*
X0159626Y0102067D02*
X0157464Y0102067D01*
X0156373Y0100469D02*
X0160384Y0100469D01*
X0160384Y0098870D02*
X0156284Y0098870D01*
X0156284Y0097272D02*
X0160735Y0097272D01*
X0162141Y0095673D02*
X0156284Y0095673D01*
X0157790Y0094075D02*
X0163739Y0094075D01*
X0165338Y0092476D02*
X0159389Y0092476D01*
X0160987Y0090878D02*
X0166936Y0090878D01*
X0162586Y0089279D02*
X0238083Y0089279D01*
X0239681Y0090878D02*
X0235500Y0090878D01*
X0237331Y0092476D02*
X0241280Y0092476D01*
X0242878Y0094075D02*
X0238929Y0094075D01*
X0240528Y0095673D02*
X0244477Y0095673D01*
X0246075Y0097272D02*
X0242126Y0097272D01*
X0243725Y0098870D02*
X0247674Y0098870D01*
X0249273Y0100469D02*
X0245323Y0100469D01*
X0246922Y0102067D02*
X0250871Y0102067D01*
X0252214Y0103666D02*
X0248520Y0103666D01*
X0250119Y0105264D02*
X0265397Y0105264D01*
X0265419Y0103666D02*
X0264285Y0103666D01*
X0264422Y0106863D02*
X0265375Y0106863D01*
X0265286Y0113257D02*
X0264694Y0113257D01*
X0252486Y0116454D02*
X0230309Y0116454D01*
X0226053Y0121249D02*
X0223604Y0121249D01*
X0224455Y0119651D02*
X0222006Y0119651D01*
X0222856Y0118052D02*
X0220407Y0118052D01*
X0221258Y0116454D02*
X0218809Y0116454D01*
X0220076Y0114855D02*
X0217210Y0114855D01*
X0216784Y0113257D02*
X0219884Y0113257D01*
X0219884Y0111658D02*
X0216784Y0111658D01*
X0217561Y0110060D02*
X0219529Y0110060D01*
X0219345Y0108461D02*
X0217745Y0108461D01*
X0217745Y0106863D02*
X0219345Y0106863D01*
X0219345Y0105264D02*
X0217745Y0105264D01*
X0217745Y0103666D02*
X0219345Y0103666D01*
X0219626Y0102067D02*
X0217464Y0102067D01*
X0216373Y0100469D02*
X0220717Y0100469D01*
X0210717Y0100469D02*
X0206373Y0100469D01*
X0207464Y0102067D02*
X0209626Y0102067D01*
X0209345Y0103666D02*
X0207745Y0103666D01*
X0207745Y0105264D02*
X0209345Y0105264D01*
X0209345Y0106863D02*
X0207745Y0106863D01*
X0207745Y0108461D02*
X0209345Y0108461D01*
X0209529Y0110060D02*
X0207561Y0110060D01*
X0206745Y0111658D02*
X0210384Y0111658D01*
X0210384Y0113257D02*
X0206745Y0113257D01*
X0206745Y0114855D02*
X0210384Y0114855D01*
X0210410Y0116454D02*
X0206745Y0116454D01*
X0206745Y0118052D02*
X0211356Y0118052D01*
X0212955Y0119651D02*
X0206745Y0119651D01*
X0206745Y0121249D02*
X0214553Y0121249D01*
X0216152Y0122848D02*
X0206745Y0122848D01*
X0206745Y0124446D02*
X0217750Y0124446D01*
X0219349Y0126045D02*
X0206745Y0126045D01*
X0206745Y0127643D02*
X0220947Y0127643D01*
X0222546Y0129242D02*
X0206745Y0129242D01*
X0206745Y0130840D02*
X0224144Y0130840D01*
X0225743Y0132439D02*
X0206745Y0132439D01*
X0206745Y0134038D02*
X0252586Y0134038D01*
X0253251Y0126045D02*
X0228400Y0126045D01*
X0226801Y0124446D02*
X0253491Y0124446D01*
X0252078Y0106863D02*
X0251718Y0106863D01*
X0233075Y0097272D02*
X0169593Y0097272D01*
X0176373Y0100469D02*
X0180717Y0100469D01*
X0179626Y0102067D02*
X0177464Y0102067D01*
X0177745Y0103666D02*
X0179345Y0103666D01*
X0179345Y0105264D02*
X0177745Y0105264D01*
X0177745Y0106863D02*
X0179345Y0106863D01*
X0179345Y0108461D02*
X0177745Y0108461D01*
X0177561Y0110060D02*
X0179529Y0110060D01*
X0180483Y0111658D02*
X0176607Y0111658D01*
X0174784Y0122848D02*
X0200345Y0122848D01*
X0200345Y0124446D02*
X0180704Y0124446D01*
X0181570Y0126045D02*
X0200345Y0126045D01*
X0200345Y0127643D02*
X0181657Y0127643D01*
X0181657Y0129242D02*
X0184073Y0129242D01*
X0190182Y0129242D02*
X0200345Y0129242D01*
X0200345Y0130840D02*
X0192613Y0130840D01*
X0193984Y0132439D02*
X0200345Y0132439D01*
X0200345Y0134038D02*
X0194647Y0134038D01*
X0195027Y0135636D02*
X0199808Y0135636D01*
X0198209Y0137235D02*
X0195027Y0137235D01*
X0194722Y0138833D02*
X0196611Y0138833D01*
X0195012Y0140432D02*
X0194060Y0140432D01*
X0195079Y0159614D02*
X0250362Y0159614D01*
X0251345Y0161212D02*
X0193815Y0161212D01*
X0192124Y0162811D02*
X0252943Y0162811D01*
X0263310Y0143629D02*
X0264867Y0143629D01*
X0227652Y0122848D02*
X0225203Y0122848D01*
X0211590Y0081287D02*
X0123274Y0081287D01*
X0121675Y0082885D02*
X0159929Y0082885D01*
X0158330Y0084484D02*
X0120077Y0084484D01*
X0118478Y0086082D02*
X0156732Y0086082D01*
X0155133Y0087681D02*
X0117184Y0087681D01*
X0117184Y0089279D02*
X0153535Y0089279D01*
X0151936Y0090878D02*
X0117184Y0090878D01*
X0117184Y0092476D02*
X0150358Y0092476D01*
X0149884Y0094075D02*
X0117184Y0094075D01*
X0117184Y0095673D02*
X0149884Y0095673D01*
X0149884Y0097272D02*
X0117184Y0097272D01*
X0117184Y0098870D02*
X0149884Y0098870D01*
X0135089Y0114855D02*
X0131639Y0114855D01*
X0130041Y0116454D02*
X0133490Y0116454D01*
X0131891Y0118052D02*
X0128442Y0118052D01*
X0122589Y0114855D02*
X0107099Y0114855D01*
X0107099Y0116454D02*
X0120990Y0116454D01*
X0119391Y0118052D02*
X0107099Y0118052D01*
X0116607Y0111658D02*
X0120200Y0111658D01*
X0119334Y0110060D02*
X0117561Y0110060D01*
X0117745Y0108461D02*
X0119145Y0108461D01*
X0119145Y0106863D02*
X0117745Y0106863D01*
X0117745Y0105264D02*
X0119145Y0105264D01*
X0119145Y0103666D02*
X0117745Y0103666D01*
X0117464Y0102067D02*
X0119410Y0102067D01*
X0120434Y0100469D02*
X0117184Y0100469D01*
X0124872Y0079688D02*
X0209992Y0079688D01*
X0208393Y0078090D02*
X0126471Y0078090D01*
X0128069Y0076491D02*
X0206795Y0076491D01*
X0205196Y0074893D02*
X0129668Y0074893D01*
X0131266Y0073294D02*
X0203598Y0073294D01*
X0201999Y0071696D02*
X0132865Y0071696D01*
X0134463Y0070097D02*
X0200401Y0070097D01*
X0198802Y0068499D02*
X0136062Y0068499D01*
X0137037Y0066900D02*
X0197204Y0066900D01*
X0186711Y0058907D02*
X0184262Y0058907D01*
X0185113Y0057309D02*
X0182664Y0057309D01*
X0183514Y0055710D02*
X0181065Y0055710D01*
X0181916Y0054112D02*
X0179467Y0054112D01*
X0180642Y0052513D02*
X0177868Y0052513D01*
X0177207Y0050915D02*
X0179883Y0050915D01*
X0179345Y0049316D02*
X0177745Y0049316D01*
X0177745Y0047718D02*
X0179345Y0047718D01*
X0179345Y0046119D02*
X0177745Y0046119D01*
X0177745Y0044521D02*
X0179345Y0044521D01*
X0179345Y0042922D02*
X0177745Y0042922D01*
X0177156Y0041324D02*
X0179934Y0041324D01*
X0181877Y0039725D02*
X0175213Y0039725D01*
X0171877Y0039725D02*
X0166745Y0039725D01*
X0166745Y0040841D02*
X0167106Y0041201D01*
X0167745Y0042745D01*
X0167745Y0049616D01*
X0167106Y0051159D01*
X0165924Y0052341D01*
X0164380Y0052980D01*
X0162710Y0052980D01*
X0161166Y0052341D01*
X0159984Y0051159D01*
X0159345Y0049616D01*
X0159345Y0042745D01*
X0159984Y0041201D01*
X0160345Y0040841D01*
X0160345Y0030603D01*
X0160832Y0029427D01*
X0169384Y0020875D01*
X0169384Y0020365D01*
X0170024Y0018821D01*
X0171205Y0017639D01*
X0172749Y0017000D01*
X0174420Y0017000D01*
X0175963Y0017639D01*
X0176304Y0017980D01*
X0188540Y0017892D01*
X0189762Y0016670D01*
X0193407Y0016670D01*
X0195984Y0019248D01*
X0195984Y0022893D01*
X0193407Y0025470D01*
X0189762Y0025470D01*
X0188584Y0024292D01*
X0176344Y0024380D01*
X0175963Y0024761D01*
X0174420Y0025400D01*
X0173910Y0025400D01*
X0166745Y0032565D01*
X0166745Y0040841D01*
X0167156Y0041324D02*
X0169934Y0041324D01*
X0169345Y0042922D02*
X0167745Y0042922D01*
X0167745Y0044521D02*
X0169345Y0044521D01*
X0169345Y0046119D02*
X0167745Y0046119D01*
X0167745Y0047718D02*
X0169345Y0047718D01*
X0169345Y0049316D02*
X0167745Y0049316D01*
X0167207Y0050915D02*
X0169883Y0050915D01*
X0170384Y0052513D02*
X0165508Y0052513D01*
X0170683Y0054112D02*
X0137145Y0054112D01*
X0137145Y0055710D02*
X0172014Y0055710D01*
X0173613Y0057309D02*
X0137145Y0057309D01*
X0137145Y0058907D02*
X0175211Y0058907D01*
X0176810Y0060506D02*
X0137145Y0060506D01*
X0137145Y0062105D02*
X0178408Y0062105D01*
X0180007Y0063703D02*
X0137145Y0063703D01*
X0137145Y0065302D02*
X0181605Y0065302D01*
X0189368Y0052513D02*
X0191582Y0052513D01*
X0191166Y0052341D02*
X0189984Y0051159D01*
X0189345Y0049616D01*
X0189345Y0042745D01*
X0189984Y0041201D01*
X0191166Y0040020D01*
X0192710Y0039380D01*
X0194380Y0039380D01*
X0195924Y0040020D01*
X0197106Y0041201D01*
X0197745Y0042745D01*
X0197745Y0049616D01*
X0197106Y0051159D01*
X0195924Y0052341D01*
X0194380Y0052980D01*
X0192710Y0052980D01*
X0191166Y0052341D01*
X0189883Y0050915D02*
X0187770Y0050915D01*
X0187745Y0049316D02*
X0189345Y0049316D01*
X0189345Y0047718D02*
X0187745Y0047718D01*
X0187745Y0046119D02*
X0189345Y0046119D01*
X0189345Y0044521D02*
X0187745Y0044521D01*
X0187745Y0042922D02*
X0189345Y0042922D01*
X0189934Y0041324D02*
X0187156Y0041324D01*
X0185213Y0039725D02*
X0191877Y0039725D01*
X0195213Y0039725D02*
X0200345Y0039725D01*
X0200345Y0040841D02*
X0200345Y0029918D01*
X0200832Y0028742D01*
X0207369Y0022204D01*
X0207369Y0020507D01*
X0209947Y0017930D01*
X0213592Y0017930D01*
X0216169Y0020507D01*
X0216169Y0024152D01*
X0213592Y0026730D01*
X0211895Y0026730D01*
X0206745Y0031880D01*
X0206745Y0040841D01*
X0207106Y0041201D01*
X0207745Y0042745D01*
X0207745Y0049616D01*
X0207106Y0051159D01*
X0205924Y0052341D01*
X0204380Y0052980D01*
X0202710Y0052980D01*
X0201166Y0052341D01*
X0199984Y0051159D01*
X0199345Y0049616D01*
X0199345Y0042745D01*
X0199984Y0041201D01*
X0200345Y0040841D01*
X0199934Y0041324D02*
X0197156Y0041324D01*
X0197745Y0042922D02*
X0199345Y0042922D01*
X0199345Y0044521D02*
X0197745Y0044521D01*
X0197745Y0046119D02*
X0199345Y0046119D01*
X0199345Y0047718D02*
X0197745Y0047718D01*
X0197745Y0049316D02*
X0199345Y0049316D01*
X0199883Y0050915D02*
X0197207Y0050915D01*
X0195508Y0052513D02*
X0201582Y0052513D01*
X0205508Y0052513D02*
X0210345Y0052513D01*
X0210345Y0054112D02*
X0207467Y0054112D01*
X0209065Y0055710D02*
X0210345Y0055710D01*
X0209883Y0050915D02*
X0207207Y0050915D01*
X0207745Y0049316D02*
X0209345Y0049316D01*
X0209345Y0047718D02*
X0207745Y0047718D01*
X0207745Y0046119D02*
X0209345Y0046119D01*
X0209345Y0044521D02*
X0207745Y0044521D01*
X0207745Y0042922D02*
X0209345Y0042922D01*
X0209934Y0041324D02*
X0207156Y0041324D01*
X0206745Y0039725D02*
X0211877Y0039725D01*
X0215213Y0039725D02*
X0221877Y0039725D01*
X0221166Y0040020D02*
X0222710Y0039380D01*
X0224380Y0039380D01*
X0225924Y0040020D01*
X0227106Y0041201D01*
X0227745Y0042745D01*
X0227745Y0042980D01*
X0244870Y0042980D01*
X0246047Y0043467D01*
X0258175Y0055596D01*
X0262165Y0055596D01*
X0263855Y0056296D01*
X0265149Y0057590D01*
X0265850Y0059281D01*
X0265850Y0061111D01*
X0265149Y0062802D01*
X0263855Y0064096D01*
X0262165Y0064796D01*
X0254335Y0064796D01*
X0252644Y0064096D01*
X0251350Y0062802D01*
X0250650Y0061111D01*
X0250650Y0059281D01*
X0251282Y0057754D01*
X0242908Y0049380D01*
X0227745Y0049380D01*
X0227745Y0049616D01*
X0227106Y0051159D01*
X0225924Y0052341D01*
X0224380Y0052980D01*
X0222710Y0052980D01*
X0221166Y0052341D01*
X0219984Y0051159D01*
X0219345Y0049616D01*
X0219345Y0042745D01*
X0219984Y0041201D01*
X0221166Y0040020D01*
X0219934Y0041324D02*
X0217156Y0041324D01*
X0217745Y0042922D02*
X0219345Y0042922D01*
X0219345Y0044521D02*
X0217745Y0044521D01*
X0217745Y0046119D02*
X0219345Y0046119D01*
X0219345Y0047718D02*
X0217745Y0047718D01*
X0217745Y0049316D02*
X0219345Y0049316D01*
X0219883Y0050915D02*
X0217207Y0050915D01*
X0216745Y0052513D02*
X0221582Y0052513D01*
X0225508Y0052513D02*
X0246042Y0052513D01*
X0244443Y0050915D02*
X0227207Y0050915D01*
X0227745Y0042922D02*
X0266258Y0042922D01*
X0266280Y0041324D02*
X0227156Y0041324D01*
X0225213Y0039725D02*
X0266302Y0039725D01*
X0266324Y0038127D02*
X0206745Y0038127D01*
X0206745Y0036528D02*
X0266346Y0036528D01*
X0266368Y0034930D02*
X0206745Y0034930D01*
X0206745Y0033331D02*
X0266390Y0033331D01*
X0266412Y0031733D02*
X0206892Y0031733D01*
X0208490Y0030134D02*
X0266434Y0030134D01*
X0266457Y0028536D02*
X0210089Y0028536D01*
X0211688Y0026937D02*
X0255022Y0026937D01*
X0252471Y0025339D02*
X0225266Y0025339D01*
X0226369Y0024235D02*
X0223675Y0026930D01*
X0221769Y0026930D01*
X0219864Y0026930D01*
X0217169Y0024235D01*
X0217169Y0022330D01*
X0221769Y0022330D01*
X0221769Y0022330D01*
X0217169Y0022330D01*
X0217169Y0020425D01*
X0219864Y0017730D01*
X0221769Y0017730D01*
X0221769Y0022330D01*
X0221769Y0026930D01*
X0221769Y0022330D01*
X0221769Y0022330D01*
X0221769Y0022330D01*
X0221769Y0017730D01*
X0223675Y0017730D01*
X0226369Y0020425D01*
X0226369Y0022330D01*
X0226369Y0024235D01*
X0226369Y0023740D02*
X0250873Y0023740D01*
X0249878Y0022142D02*
X0226369Y0022142D01*
X0226369Y0022330D02*
X0221770Y0022330D01*
X0226369Y0022330D01*
X0226369Y0020543D02*
X0249109Y0020543D01*
X0248680Y0018945D02*
X0224890Y0018945D01*
X0221769Y0018945D02*
X0221769Y0018945D01*
X0221769Y0020543D02*
X0221769Y0020543D01*
X0221769Y0022142D02*
X0221769Y0022142D01*
X0221770Y0022330D02*
X0221770Y0022330D01*
X0221769Y0023740D02*
X0221769Y0023740D01*
X0221769Y0025339D02*
X0221769Y0025339D01*
X0218273Y0025339D02*
X0214983Y0025339D01*
X0216169Y0023740D02*
X0217169Y0023740D01*
X0217169Y0022142D02*
X0216169Y0022142D01*
X0216169Y0020543D02*
X0217169Y0020543D01*
X0218649Y0018945D02*
X0214607Y0018945D01*
X0208932Y0018945D02*
X0195681Y0018945D01*
X0195984Y0020543D02*
X0207369Y0020543D01*
X0207369Y0022142D02*
X0195984Y0022142D01*
X0195137Y0023740D02*
X0205834Y0023740D01*
X0204235Y0025339D02*
X0193538Y0025339D01*
X0193490Y0026470D02*
X0196184Y0029165D01*
X0196184Y0031070D01*
X0191584Y0031070D01*
X0186984Y0031070D01*
X0186984Y0029165D01*
X0189679Y0026470D01*
X0191584Y0026470D01*
X0191584Y0031070D01*
X0191584Y0031070D01*
X0186984Y0031070D01*
X0186984Y0032975D01*
X0189679Y0035670D01*
X0191584Y0035670D01*
X0191584Y0031070D01*
X0191584Y0031070D01*
X0191584Y0031070D01*
X0191584Y0026470D01*
X0193490Y0026470D01*
X0193957Y0026937D02*
X0202637Y0026937D01*
X0201038Y0028536D02*
X0195555Y0028536D01*
X0196184Y0030134D02*
X0200345Y0030134D01*
X0200345Y0031733D02*
X0196184Y0031733D01*
X0196184Y0031070D02*
X0196184Y0032975D01*
X0193490Y0035670D01*
X0191584Y0035670D01*
X0191584Y0031070D01*
X0191584Y0031070D01*
X0196184Y0031070D01*
X0195828Y0033331D02*
X0200345Y0033331D01*
X0200345Y0034930D02*
X0194230Y0034930D01*
X0191584Y0034930D02*
X0191584Y0034930D01*
X0191584Y0033331D02*
X0191584Y0033331D01*
X0191584Y0031733D02*
X0191584Y0031733D01*
X0191584Y0030134D02*
X0191584Y0030134D01*
X0191584Y0028536D02*
X0191584Y0028536D01*
X0191584Y0026937D02*
X0191584Y0026937D01*
X0189212Y0026937D02*
X0172373Y0026937D01*
X0170774Y0028536D02*
X0187613Y0028536D01*
X0186984Y0030134D02*
X0169176Y0030134D01*
X0167577Y0031733D02*
X0186984Y0031733D01*
X0187340Y0033331D02*
X0166745Y0033331D01*
X0166745Y0034930D02*
X0188939Y0034930D01*
X0189630Y0025339D02*
X0174568Y0025339D01*
X0169384Y0020543D02*
X0157784Y0020543D01*
X0157784Y0020365D02*
X0157784Y0022035D01*
X0157145Y0023579D01*
X0156745Y0023979D01*
X0156745Y0040841D01*
X0157106Y0041201D01*
X0157745Y0042745D01*
X0157745Y0049616D01*
X0157106Y0051159D01*
X0155924Y0052341D01*
X0154380Y0052980D01*
X0152710Y0052980D01*
X0151166Y0052341D01*
X0149984Y0051159D01*
X0149345Y0049616D01*
X0149345Y0042745D01*
X0149984Y0041201D01*
X0150345Y0040841D01*
X0150345Y0023900D01*
X0150024Y0023579D01*
X0149384Y0022035D01*
X0149384Y0020711D01*
X0148259Y0019585D01*
X0139292Y0019585D01*
X0138407Y0020470D01*
X0134762Y0020470D01*
X0132184Y0017893D01*
X0132184Y0014248D01*
X0134762Y0011670D01*
X0138407Y0011670D01*
X0139922Y0013185D01*
X0150221Y0013185D01*
X0151397Y0013672D01*
X0152297Y0014572D01*
X0154658Y0016933D01*
X0155624Y0017333D01*
X0155906Y0017616D01*
X0155963Y0017639D01*
X0157145Y0018821D01*
X0157784Y0020365D01*
X0157196Y0018945D02*
X0169972Y0018945D01*
X0171913Y0017346D02*
X0155637Y0017346D01*
X0153472Y0015748D02*
X0248485Y0015748D01*
X0248485Y0017346D02*
X0194083Y0017346D01*
X0189086Y0017346D02*
X0175256Y0017346D01*
X0168117Y0022142D02*
X0157740Y0022142D01*
X0156984Y0023740D02*
X0166519Y0023740D01*
X0164920Y0025339D02*
X0156745Y0025339D01*
X0156745Y0026937D02*
X0163322Y0026937D01*
X0161723Y0028536D02*
X0156745Y0028536D01*
X0156745Y0030134D02*
X0160539Y0030134D01*
X0160345Y0031733D02*
X0156745Y0031733D01*
X0156745Y0033331D02*
X0160345Y0033331D01*
X0160345Y0034930D02*
X0156745Y0034930D01*
X0156745Y0036528D02*
X0160345Y0036528D01*
X0160345Y0038127D02*
X0156745Y0038127D01*
X0156745Y0039725D02*
X0160345Y0039725D01*
X0159934Y0041324D02*
X0157156Y0041324D01*
X0157745Y0042922D02*
X0159345Y0042922D01*
X0159345Y0044521D02*
X0157745Y0044521D01*
X0157745Y0046119D02*
X0159345Y0046119D01*
X0159345Y0047718D02*
X0157745Y0047718D01*
X0157745Y0049316D02*
X0159345Y0049316D01*
X0159883Y0050915D02*
X0157207Y0050915D01*
X0155508Y0052513D02*
X0161582Y0052513D01*
X0151582Y0052513D02*
X0145892Y0052513D01*
X0145851Y0052544D02*
X0145234Y0052858D01*
X0144575Y0053072D01*
X0143891Y0053180D01*
X0143545Y0053180D01*
X0143545Y0046180D01*
X0143545Y0039180D01*
X0143891Y0039180D01*
X0144575Y0039289D01*
X0145234Y0039503D01*
X0145851Y0039817D01*
X0146411Y0040224D01*
X0146901Y0040714D01*
X0147308Y0041274D01*
X0147623Y0041891D01*
X0147837Y0042550D01*
X0147945Y0043234D01*
X0147945Y0046180D01*
X0143545Y0046180D01*
X0143545Y0046180D01*
X0143545Y0039180D01*
X0143199Y0039180D01*
X0142515Y0039289D01*
X0141856Y0039503D01*
X0141239Y0039817D01*
X0140679Y0040224D01*
X0140189Y0040714D01*
X0139782Y0041274D01*
X0139467Y0041891D01*
X0139253Y0042550D01*
X0139145Y0043234D01*
X0139145Y0046180D01*
X0143545Y0046180D01*
X0143545Y0046180D01*
X0143545Y0046180D01*
X0147945Y0046180D01*
X0147945Y0049127D01*
X0147837Y0049811D01*
X0147623Y0050469D01*
X0147308Y0051086D01*
X0146901Y0051647D01*
X0146411Y0052136D01*
X0145851Y0052544D01*
X0147396Y0050915D02*
X0149883Y0050915D01*
X0149345Y0049316D02*
X0147915Y0049316D01*
X0147945Y0047718D02*
X0149345Y0047718D01*
X0149345Y0046119D02*
X0147945Y0046119D01*
X0147945Y0044521D02*
X0149345Y0044521D01*
X0149345Y0042922D02*
X0147896Y0042922D01*
X0147333Y0041324D02*
X0149934Y0041324D01*
X0150345Y0039725D02*
X0145671Y0039725D01*
X0143545Y0039725D02*
X0143545Y0039725D01*
X0143545Y0041324D02*
X0143545Y0041324D01*
X0143545Y0042922D02*
X0143545Y0042922D01*
X0143545Y0044521D02*
X0143545Y0044521D01*
X0143545Y0046119D02*
X0143545Y0046119D01*
X0143545Y0046180D02*
X0139145Y0046180D01*
X0139145Y0049127D01*
X0139253Y0049811D01*
X0139467Y0050469D01*
X0139782Y0051086D01*
X0140189Y0051647D01*
X0140679Y0052136D01*
X0141239Y0052544D01*
X0141856Y0052858D01*
X0142515Y0053072D01*
X0143199Y0053180D01*
X0143545Y0053180D01*
X0143545Y0046180D01*
X0143545Y0046180D01*
X0143545Y0047718D02*
X0143545Y0047718D01*
X0143545Y0049316D02*
X0143545Y0049316D01*
X0143545Y0050915D02*
X0143545Y0050915D01*
X0143545Y0052513D02*
X0143545Y0052513D01*
X0141197Y0052513D02*
X0137145Y0052513D01*
X0137207Y0050915D02*
X0139694Y0050915D01*
X0139175Y0049316D02*
X0137745Y0049316D01*
X0137745Y0047718D02*
X0139145Y0047718D01*
X0139145Y0046119D02*
X0137745Y0046119D01*
X0137745Y0044521D02*
X0139145Y0044521D01*
X0139194Y0042922D02*
X0137745Y0042922D01*
X0137184Y0041324D02*
X0139756Y0041324D01*
X0141419Y0039725D02*
X0137184Y0039725D01*
X0137184Y0038127D02*
X0150345Y0038127D01*
X0150345Y0036528D02*
X0137184Y0036528D01*
X0137085Y0034930D02*
X0150345Y0034930D01*
X0150345Y0033331D02*
X0136122Y0033331D01*
X0134523Y0031733D02*
X0150345Y0031733D01*
X0150345Y0030134D02*
X0139026Y0030134D01*
X0138490Y0030670D02*
X0136584Y0030670D01*
X0134679Y0030670D01*
X0131984Y0027975D01*
X0131984Y0026070D01*
X0131984Y0024165D01*
X0134679Y0021470D01*
X0136584Y0021470D01*
X0136584Y0026070D01*
X0131984Y0026070D01*
X0136584Y0026070D01*
X0136584Y0026070D01*
X0136584Y0026070D01*
X0136584Y0030670D01*
X0136584Y0026070D01*
X0136584Y0026070D01*
X0136584Y0021470D01*
X0138490Y0021470D01*
X0141184Y0024165D01*
X0141184Y0026070D01*
X0136584Y0026070D01*
X0136584Y0026070D01*
X0141184Y0026070D01*
X0141184Y0027975D01*
X0138490Y0030670D01*
X0136584Y0030134D02*
X0136584Y0030134D01*
X0136584Y0028536D02*
X0136584Y0028536D01*
X0136584Y0026937D02*
X0136584Y0026937D01*
X0136584Y0025339D02*
X0136584Y0025339D01*
X0136584Y0023740D02*
X0136584Y0023740D01*
X0136584Y0022142D02*
X0136584Y0022142D01*
X0134007Y0022142D02*
X0110932Y0022142D01*
X0109334Y0020543D02*
X0118312Y0020543D01*
X0119069Y0021300D02*
X0116374Y0018605D01*
X0116374Y0016700D01*
X0120974Y0016700D01*
X0120974Y0016700D01*
X0116374Y0016700D01*
X0116374Y0014795D01*
X0119069Y0012100D01*
X0120974Y0012100D01*
X0120974Y0016700D01*
X0120974Y0021300D01*
X0119069Y0021300D01*
X0120974Y0021300D02*
X0120974Y0016700D01*
X0120974Y0016700D01*
X0120974Y0016700D01*
X0120974Y0012100D01*
X0122879Y0012100D01*
X0125574Y0014795D01*
X0125574Y0016700D01*
X0125574Y0018605D01*
X0122879Y0021300D01*
X0120974Y0021300D01*
X0120974Y0020543D02*
X0120974Y0020543D01*
X0120974Y0018945D02*
X0120974Y0018945D01*
X0120974Y0017346D02*
X0120974Y0017346D01*
X0120974Y0016700D02*
X0125574Y0016700D01*
X0120974Y0016700D01*
X0120974Y0016700D01*
X0120974Y0015748D02*
X0120974Y0015748D01*
X0120974Y0014149D02*
X0120974Y0014149D01*
X0120974Y0012551D02*
X0120974Y0012551D01*
X0118618Y0012551D02*
X0013340Y0012551D01*
X0013331Y0014149D02*
X0028930Y0014149D01*
X0031719Y0014149D02*
X0038930Y0014149D01*
X0041719Y0014149D02*
X0048930Y0014149D01*
X0051719Y0014149D02*
X0090836Y0014149D01*
X0091013Y0014020D02*
X0091687Y0013677D01*
X0092405Y0013443D01*
X0093151Y0013325D01*
X0093329Y0013325D01*
X0093329Y0020925D01*
X0088729Y0020925D01*
X0088729Y0017747D01*
X0088847Y0017001D01*
X0089081Y0016283D01*
X0089424Y0015609D01*
X0089868Y0014998D01*
X0090402Y0014464D01*
X0091013Y0014020D01*
X0093329Y0014149D02*
X0093729Y0014149D01*
X0093729Y0013325D02*
X0093907Y0013325D01*
X0094653Y0013443D01*
X0095372Y0013677D01*
X0096045Y0014020D01*
X0096656Y0014464D01*
X0097190Y0014998D01*
X0097635Y0015609D01*
X0097978Y0016283D01*
X0098211Y0017001D01*
X0098329Y0017747D01*
X0098329Y0020925D01*
X0093729Y0020925D01*
X0093729Y0013325D01*
X0093729Y0015748D02*
X0093329Y0015748D01*
X0093329Y0017346D02*
X0093729Y0017346D01*
X0093729Y0018945D02*
X0093329Y0018945D01*
X0093329Y0020543D02*
X0093729Y0020543D01*
X0093729Y0020925D02*
X0093329Y0020925D01*
X0093329Y0021325D01*
X0088729Y0021325D01*
X0088729Y0024503D01*
X0088847Y0025249D01*
X0089081Y0025968D01*
X0089424Y0026641D01*
X0089868Y0027252D01*
X0090402Y0027786D01*
X0091013Y0028231D01*
X0091687Y0028574D01*
X0092405Y0028807D01*
X0093151Y0028925D01*
X0093329Y0028925D01*
X0093329Y0021325D01*
X0093729Y0021325D01*
X0098329Y0021325D01*
X0098329Y0024503D01*
X0098211Y0025249D01*
X0097978Y0025968D01*
X0097635Y0026641D01*
X0097190Y0027252D01*
X0096656Y0027786D01*
X0096045Y0028231D01*
X0095372Y0028574D01*
X0094653Y0028807D01*
X0093907Y0028925D01*
X0093729Y0028925D01*
X0093729Y0021325D01*
X0093729Y0020925D01*
X0093729Y0022142D02*
X0093329Y0022142D01*
X0093329Y0023740D02*
X0093729Y0023740D01*
X0093729Y0025339D02*
X0093329Y0025339D01*
X0093329Y0026937D02*
X0093729Y0026937D01*
X0093729Y0028536D02*
X0093329Y0028536D01*
X0091613Y0028536D02*
X0053525Y0028536D01*
X0054315Y0026937D02*
X0089639Y0026937D01*
X0088877Y0025339D02*
X0054924Y0025339D01*
X0054924Y0023740D02*
X0088729Y0023740D01*
X0088729Y0022142D02*
X0054924Y0022142D01*
X0054924Y0020543D02*
X0088729Y0020543D01*
X0088729Y0018945D02*
X0054924Y0018945D01*
X0054805Y0017346D02*
X0088793Y0017346D01*
X0089353Y0015748D02*
X0054027Y0015748D01*
X0046622Y0015748D02*
X0044027Y0015748D01*
X0044805Y0017346D02*
X0045844Y0017346D01*
X0045724Y0018945D02*
X0044924Y0018945D01*
X0044924Y0020543D02*
X0045724Y0020543D01*
X0045724Y0022142D02*
X0044924Y0022142D01*
X0044924Y0023740D02*
X0045724Y0023740D01*
X0045724Y0025339D02*
X0044924Y0025339D01*
X0044941Y0026937D02*
X0044315Y0026937D01*
X0050328Y0031733D02*
X0124341Y0031733D01*
X0125939Y0033331D02*
X0048729Y0033331D01*
X0047131Y0034930D02*
X0127538Y0034930D01*
X0129136Y0036528D02*
X0045532Y0036528D01*
X0043934Y0038127D02*
X0129984Y0038127D01*
X0129984Y0039725D02*
X0125213Y0039725D01*
X0125924Y0040020D02*
X0124380Y0039380D01*
X0122710Y0039380D01*
X0121166Y0040020D01*
X0119984Y0041201D01*
X0119345Y0042745D01*
X0119345Y0049616D01*
X0119984Y0051159D01*
X0121166Y0052341D01*
X0122710Y0052980D01*
X0124380Y0052980D01*
X0125924Y0052341D01*
X0127106Y0051159D01*
X0127745Y0049616D01*
X0127745Y0042745D01*
X0127106Y0041201D01*
X0125924Y0040020D01*
X0127156Y0041324D02*
X0129934Y0041324D01*
X0129345Y0042922D02*
X0127745Y0042922D01*
X0127745Y0044521D02*
X0129345Y0044521D01*
X0129345Y0046119D02*
X0127745Y0046119D01*
X0127745Y0047718D02*
X0129345Y0047718D01*
X0129345Y0049316D02*
X0127745Y0049316D01*
X0127207Y0050915D02*
X0129883Y0050915D01*
X0129945Y0052513D02*
X0125508Y0052513D01*
X0121582Y0052513D02*
X0115508Y0052513D01*
X0115924Y0052341D02*
X0114380Y0052980D01*
X0112710Y0052980D01*
X0111166Y0052341D01*
X0109984Y0051159D01*
X0109345Y0049616D01*
X0109345Y0042745D01*
X0109984Y0041201D01*
X0111166Y0040020D01*
X0112710Y0039380D01*
X0114380Y0039380D01*
X0115924Y0040020D01*
X0117106Y0041201D01*
X0117745Y0042745D01*
X0117745Y0049616D01*
X0117106Y0051159D01*
X0115924Y0052341D01*
X0117207Y0050915D02*
X0119883Y0050915D01*
X0119345Y0049316D02*
X0117745Y0049316D01*
X0117745Y0047718D02*
X0119345Y0047718D01*
X0119345Y0046119D02*
X0117745Y0046119D01*
X0117745Y0044521D02*
X0119345Y0044521D01*
X0119345Y0042922D02*
X0117745Y0042922D01*
X0117156Y0041324D02*
X0119934Y0041324D01*
X0121877Y0039725D02*
X0115213Y0039725D01*
X0111877Y0039725D02*
X0105213Y0039725D01*
X0105924Y0040020D02*
X0107106Y0041201D01*
X0107745Y0042745D01*
X0107745Y0049616D01*
X0107106Y0051159D01*
X0105924Y0052341D01*
X0104380Y0052980D01*
X0102710Y0052980D01*
X0101166Y0052341D01*
X0099984Y0051159D01*
X0099345Y0049616D01*
X0099345Y0042745D01*
X0099984Y0041201D01*
X0101166Y0040020D01*
X0102710Y0039380D01*
X0104380Y0039380D01*
X0105924Y0040020D01*
X0107156Y0041324D02*
X0109934Y0041324D01*
X0109345Y0042922D02*
X0107745Y0042922D01*
X0107745Y0044521D02*
X0109345Y0044521D01*
X0109345Y0046119D02*
X0107745Y0046119D01*
X0107745Y0047718D02*
X0109345Y0047718D01*
X0109345Y0049316D02*
X0107745Y0049316D01*
X0107207Y0050915D02*
X0109883Y0050915D01*
X0111582Y0052513D02*
X0105508Y0052513D01*
X0101582Y0052513D02*
X0095508Y0052513D01*
X0095924Y0052341D02*
X0094380Y0052980D01*
X0092710Y0052980D01*
X0091166Y0052341D01*
X0089984Y0051159D01*
X0089345Y0049616D01*
X0089345Y0042745D01*
X0089984Y0041201D01*
X0091166Y0040020D01*
X0092710Y0039380D01*
X0094380Y0039380D01*
X0095924Y0040020D01*
X0097106Y0041201D01*
X0097745Y0042745D01*
X0097745Y0049616D01*
X0097106Y0051159D01*
X0095924Y0052341D01*
X0097207Y0050915D02*
X0099883Y0050915D01*
X0099345Y0049316D02*
X0097745Y0049316D01*
X0097745Y0047718D02*
X0099345Y0047718D01*
X0099345Y0046119D02*
X0097745Y0046119D01*
X0097745Y0044521D02*
X0099345Y0044521D01*
X0099345Y0042922D02*
X0097745Y0042922D01*
X0097156Y0041324D02*
X0099934Y0041324D01*
X0101877Y0039725D02*
X0095213Y0039725D01*
X0091877Y0039725D02*
X0085213Y0039725D01*
X0085924Y0040020D02*
X0084380Y0039380D01*
X0082710Y0039380D01*
X0081166Y0040020D01*
X0079984Y0041201D01*
X0079345Y0042745D01*
X0079345Y0049616D01*
X0079984Y0051159D01*
X0081166Y0052341D01*
X0082710Y0052980D01*
X0084380Y0052980D01*
X0085924Y0052341D01*
X0087106Y0051159D01*
X0087745Y0049616D01*
X0087745Y0042745D01*
X0087106Y0041201D01*
X0085924Y0040020D01*
X0087156Y0041324D02*
X0089934Y0041324D01*
X0089345Y0042922D02*
X0087745Y0042922D01*
X0087745Y0044521D02*
X0089345Y0044521D01*
X0089345Y0046119D02*
X0087745Y0046119D01*
X0087745Y0047718D02*
X0089345Y0047718D01*
X0089345Y0049316D02*
X0087745Y0049316D01*
X0087207Y0050915D02*
X0089883Y0050915D01*
X0091582Y0052513D02*
X0085508Y0052513D01*
X0081582Y0052513D02*
X0075508Y0052513D01*
X0075924Y0052341D02*
X0074380Y0052980D01*
X0072710Y0052980D01*
X0071166Y0052341D01*
X0069984Y0051159D01*
X0069345Y0049616D01*
X0069345Y0042745D01*
X0069984Y0041201D01*
X0071166Y0040020D01*
X0072710Y0039380D01*
X0074380Y0039380D01*
X0075924Y0040020D01*
X0077106Y0041201D01*
X0077745Y0042745D01*
X0077745Y0049616D01*
X0077106Y0051159D01*
X0075924Y0052341D01*
X0077207Y0050915D02*
X0079883Y0050915D01*
X0079345Y0049316D02*
X0077745Y0049316D01*
X0077745Y0047718D02*
X0079345Y0047718D01*
X0079345Y0046119D02*
X0077745Y0046119D01*
X0077745Y0044521D02*
X0079345Y0044521D01*
X0079345Y0042922D02*
X0077745Y0042922D01*
X0077156Y0041324D02*
X0079934Y0041324D01*
X0081877Y0039725D02*
X0075213Y0039725D01*
X0071877Y0039725D02*
X0065213Y0039725D01*
X0065924Y0040020D02*
X0067106Y0041201D01*
X0067745Y0042745D01*
X0067745Y0049616D01*
X0067106Y0051159D01*
X0065924Y0052341D01*
X0064380Y0052980D01*
X0062710Y0052980D01*
X0061166Y0052341D01*
X0059984Y0051159D01*
X0059345Y0049616D01*
X0059345Y0042745D01*
X0059984Y0041201D01*
X0061166Y0040020D01*
X0062710Y0039380D01*
X0064380Y0039380D01*
X0065924Y0040020D01*
X0067156Y0041324D02*
X0069934Y0041324D01*
X0069345Y0042922D02*
X0067745Y0042922D01*
X0067745Y0044521D02*
X0069345Y0044521D01*
X0069345Y0046119D02*
X0067745Y0046119D01*
X0067745Y0047718D02*
X0069345Y0047718D01*
X0069345Y0049316D02*
X0067745Y0049316D01*
X0067207Y0050915D02*
X0069883Y0050915D01*
X0071582Y0052513D02*
X0065508Y0052513D01*
X0061582Y0052513D02*
X0055508Y0052513D01*
X0055924Y0052341D02*
X0054380Y0052980D01*
X0052710Y0052980D01*
X0051166Y0052341D01*
X0049984Y0051159D01*
X0049345Y0049616D01*
X0049345Y0042745D01*
X0049984Y0041201D01*
X0051166Y0040020D01*
X0052710Y0039380D01*
X0054380Y0039380D01*
X0055924Y0040020D01*
X0057106Y0041201D01*
X0057745Y0042745D01*
X0057745Y0049616D01*
X0057106Y0051159D01*
X0055924Y0052341D01*
X0057207Y0050915D02*
X0059883Y0050915D01*
X0059345Y0049316D02*
X0057745Y0049316D01*
X0057745Y0047718D02*
X0059345Y0047718D01*
X0059345Y0046119D02*
X0057745Y0046119D01*
X0057745Y0044521D02*
X0059345Y0044521D01*
X0059345Y0042922D02*
X0057745Y0042922D01*
X0057156Y0041324D02*
X0059934Y0041324D01*
X0061877Y0039725D02*
X0055213Y0039725D01*
X0051877Y0039725D02*
X0045213Y0039725D01*
X0047156Y0041324D02*
X0049934Y0041324D01*
X0049345Y0042922D02*
X0047745Y0042922D01*
X0047745Y0044521D02*
X0049345Y0044521D01*
X0049345Y0046119D02*
X0047745Y0046119D01*
X0047745Y0047718D02*
X0049345Y0047718D01*
X0049345Y0049316D02*
X0047745Y0049316D01*
X0047207Y0050915D02*
X0049883Y0050915D01*
X0051582Y0052513D02*
X0045508Y0052513D01*
X0041582Y0052513D02*
X0035508Y0052513D01*
X0037207Y0050915D02*
X0039883Y0050915D01*
X0039345Y0049316D02*
X0037745Y0049316D01*
X0037745Y0047718D02*
X0039345Y0047718D01*
X0039345Y0046119D02*
X0037745Y0046119D01*
X0037745Y0044521D02*
X0039345Y0044521D01*
X0039345Y0042922D02*
X0039138Y0042922D01*
X0029345Y0042922D02*
X0029138Y0042922D01*
X0023751Y0038127D02*
X0021184Y0038127D01*
X0021184Y0039725D02*
X0022153Y0039725D01*
X0021184Y0036528D02*
X0025350Y0036528D01*
X0026948Y0034930D02*
X0022036Y0034930D01*
X0023635Y0033331D02*
X0028547Y0033331D01*
X0030145Y0031733D02*
X0025233Y0031733D01*
X0026832Y0030134D02*
X0031744Y0030134D01*
X0032723Y0028536D02*
X0033342Y0028536D01*
X0034315Y0026937D02*
X0034941Y0026937D01*
X0034924Y0025339D02*
X0035724Y0025339D01*
X0035724Y0023740D02*
X0034924Y0023740D01*
X0034924Y0022142D02*
X0035724Y0022142D01*
X0035724Y0020543D02*
X0034924Y0020543D01*
X0034924Y0018945D02*
X0035724Y0018945D01*
X0035844Y0017346D02*
X0034805Y0017346D01*
X0034027Y0015748D02*
X0036622Y0015748D01*
X0026622Y0015748D02*
X0013321Y0015748D01*
X0013311Y0017346D02*
X0025844Y0017346D01*
X0025724Y0018945D02*
X0013302Y0018945D01*
X0013292Y0020543D02*
X0025724Y0020543D01*
X0024642Y0022142D02*
X0013283Y0022142D01*
X0013273Y0023740D02*
X0023043Y0023740D01*
X0021445Y0025339D02*
X0013263Y0025339D01*
X0013254Y0026937D02*
X0019846Y0026937D01*
X0018248Y0028536D02*
X0013244Y0028536D01*
X0013234Y0030134D02*
X0016649Y0030134D01*
X0015051Y0031733D02*
X0013225Y0031733D01*
X0013215Y0033331D02*
X0014085Y0033331D01*
X0013984Y0034930D02*
X0013205Y0034930D01*
X0013196Y0036528D02*
X0013984Y0036528D01*
X0013984Y0038127D02*
X0013186Y0038127D01*
X0013176Y0039725D02*
X0013984Y0039725D01*
X0013984Y0041324D02*
X0013167Y0041324D01*
X0013157Y0042922D02*
X0013984Y0042922D01*
X0013984Y0044521D02*
X0013148Y0044521D01*
X0013138Y0046119D02*
X0013984Y0046119D01*
X0013984Y0047718D02*
X0013128Y0047718D01*
X0013119Y0049316D02*
X0013984Y0049316D01*
X0013984Y0050915D02*
X0013109Y0050915D01*
X0013099Y0052513D02*
X0013984Y0052513D01*
X0013984Y0054112D02*
X0013090Y0054112D01*
X0013080Y0055710D02*
X0013984Y0055710D01*
X0013984Y0057309D02*
X0013070Y0057309D01*
X0013061Y0058907D02*
X0013984Y0058907D01*
X0013984Y0060506D02*
X0013051Y0060506D01*
X0013041Y0062105D02*
X0013984Y0062105D01*
X0013984Y0063703D02*
X0013032Y0063703D01*
X0013022Y0065302D02*
X0013984Y0065302D01*
X0013984Y0066900D02*
X0013013Y0066900D01*
X0013003Y0068499D02*
X0013984Y0068499D01*
X0013984Y0070097D02*
X0012993Y0070097D01*
X0012984Y0071696D02*
X0013984Y0071696D01*
X0014064Y0073294D02*
X0012974Y0073294D01*
X0012964Y0074893D02*
X0015001Y0074893D01*
X0016676Y0076491D02*
X0012955Y0076491D01*
X0012945Y0078090D02*
X0018763Y0078090D01*
X0020362Y0079688D02*
X0012935Y0079688D01*
X0012926Y0081287D02*
X0021960Y0081287D01*
X0023559Y0082885D02*
X0012916Y0082885D01*
X0012906Y0084484D02*
X0025157Y0084484D01*
X0026756Y0086082D02*
X0012897Y0086082D01*
X0012887Y0087681D02*
X0028355Y0087681D01*
X0029953Y0089279D02*
X0012878Y0089279D01*
X0012868Y0090878D02*
X0030384Y0090878D01*
X0030384Y0092476D02*
X0012858Y0092476D01*
X0012849Y0094075D02*
X0030384Y0094075D01*
X0030384Y0095673D02*
X0012839Y0095673D01*
X0012829Y0097272D02*
X0030384Y0097272D01*
X0030384Y0098870D02*
X0012820Y0098870D01*
X0012810Y0100469D02*
X0030384Y0100469D01*
X0029626Y0102067D02*
X0012800Y0102067D01*
X0012791Y0103666D02*
X0029345Y0103666D01*
X0029345Y0105264D02*
X0012781Y0105264D01*
X0012771Y0106863D02*
X0029345Y0106863D01*
X0029345Y0108461D02*
X0012762Y0108461D01*
X0012752Y0110060D02*
X0029529Y0110060D01*
X0030483Y0111658D02*
X0012743Y0111658D01*
X0036607Y0111658D02*
X0040483Y0111658D01*
X0039529Y0110060D02*
X0037561Y0110060D01*
X0037745Y0108461D02*
X0039345Y0108461D01*
X0039345Y0106863D02*
X0037745Y0106863D01*
X0037745Y0105264D02*
X0039345Y0105264D01*
X0039345Y0103666D02*
X0037745Y0103666D01*
X0037464Y0102067D02*
X0039626Y0102067D01*
X0040384Y0100469D02*
X0036784Y0100469D01*
X0036784Y0098870D02*
X0040384Y0098870D01*
X0040384Y0097272D02*
X0036784Y0097272D01*
X0036784Y0095673D02*
X0040384Y0095673D01*
X0040384Y0094075D02*
X0036784Y0094075D01*
X0036784Y0092476D02*
X0040384Y0092476D01*
X0040384Y0090878D02*
X0036784Y0090878D01*
X0036784Y0089279D02*
X0040384Y0089279D01*
X0040384Y0087681D02*
X0036756Y0087681D01*
X0035807Y0086082D02*
X0040384Y0086082D01*
X0040157Y0084484D02*
X0034208Y0084484D01*
X0032610Y0082885D02*
X0038559Y0082885D01*
X0036960Y0081287D02*
X0031011Y0081287D01*
X0029413Y0079688D02*
X0035362Y0079688D01*
X0033763Y0078090D02*
X0027814Y0078090D01*
X0026216Y0076491D02*
X0032165Y0076491D01*
X0030566Y0074893D02*
X0024617Y0074893D01*
X0023019Y0073294D02*
X0028968Y0073294D01*
X0027369Y0071696D02*
X0021781Y0071696D01*
X0021184Y0070097D02*
X0025771Y0070097D01*
X0024172Y0068499D02*
X0021184Y0068499D01*
X0021184Y0066900D02*
X0022574Y0066900D01*
X0051926Y0030134D02*
X0118186Y0030134D01*
X0126531Y0023740D02*
X0132409Y0023740D01*
X0131984Y0025339D02*
X0128129Y0025339D01*
X0129728Y0026937D02*
X0131984Y0026937D01*
X0132545Y0028536D02*
X0131326Y0028536D01*
X0132925Y0030134D02*
X0134143Y0030134D01*
X0140624Y0028536D02*
X0150345Y0028536D01*
X0150345Y0026937D02*
X0141184Y0026937D01*
X0141184Y0025339D02*
X0150345Y0025339D01*
X0150185Y0023740D02*
X0140760Y0023740D01*
X0139161Y0022142D02*
X0149428Y0022142D01*
X0149217Y0020543D02*
X0123636Y0020543D01*
X0125235Y0018945D02*
X0133236Y0018945D01*
X0132184Y0017346D02*
X0125574Y0017346D01*
X0125574Y0015748D02*
X0132184Y0015748D01*
X0132283Y0014149D02*
X0124929Y0014149D01*
X0123330Y0012551D02*
X0133881Y0012551D01*
X0139287Y0012551D02*
X0249220Y0012551D01*
X0248792Y0014149D02*
X0151874Y0014149D01*
X0166745Y0036528D02*
X0200345Y0036528D01*
X0200345Y0038127D02*
X0166745Y0038127D01*
X0216745Y0054112D02*
X0247640Y0054112D01*
X0249239Y0055710D02*
X0216745Y0055710D01*
X0216745Y0057309D02*
X0250837Y0057309D01*
X0250804Y0058907D02*
X0216745Y0058907D01*
X0216745Y0060506D02*
X0250650Y0060506D01*
X0251061Y0062105D02*
X0218329Y0062105D01*
X0219928Y0063703D02*
X0252251Y0063703D01*
X0262441Y0055710D02*
X0266081Y0055710D01*
X0266103Y0054112D02*
X0256691Y0054112D01*
X0255093Y0052513D02*
X0266125Y0052513D01*
X0266147Y0050915D02*
X0253494Y0050915D01*
X0251896Y0049316D02*
X0266169Y0049316D01*
X0266192Y0047718D02*
X0250297Y0047718D01*
X0248698Y0046119D02*
X0266214Y0046119D01*
X0266236Y0044521D02*
X0247100Y0044521D01*
X0264868Y0057309D02*
X0266059Y0057309D01*
X0266037Y0058907D02*
X0265695Y0058907D01*
X0265850Y0060506D02*
X0266015Y0060506D01*
X0265993Y0062105D02*
X0265438Y0062105D01*
X0265971Y0063703D02*
X0264248Y0063703D01*
X0265949Y0065302D02*
X0221526Y0065302D01*
X0249149Y0073294D02*
X0251842Y0073294D01*
X0250747Y0074893D02*
X0265816Y0074893D01*
X0265794Y0076491D02*
X0264050Y0076491D01*
X0265356Y0078090D02*
X0265772Y0078090D01*
X0265838Y0073294D02*
X0264657Y0073294D01*
X0265608Y0071696D02*
X0265860Y0071696D01*
X0265850Y0070097D02*
X0265882Y0070097D01*
X0265905Y0068499D02*
X0265526Y0068499D01*
X0265927Y0066900D02*
X0264459Y0066900D01*
X0252449Y0076491D02*
X0252346Y0076491D01*
X0264147Y0026937D02*
X0266479Y0026937D01*
X0250118Y0010952D02*
X0013350Y0010952D01*
X0096223Y0014149D02*
X0101108Y0014149D01*
X0099535Y0015748D02*
X0097705Y0015748D01*
X0098266Y0017346D02*
X0098929Y0017346D01*
X0098929Y0018945D02*
X0098329Y0018945D01*
X0098329Y0020543D02*
X0098929Y0020543D01*
X0098929Y0022142D02*
X0098329Y0022142D01*
X0098329Y0023740D02*
X0098929Y0023740D01*
X0099053Y0025339D02*
X0098182Y0025339D01*
X0097419Y0026937D02*
X0099836Y0026937D01*
X0102157Y0028536D02*
X0095446Y0028536D01*
X0104902Y0028536D02*
X0107144Y0028536D01*
X0108129Y0018945D02*
X0116713Y0018945D01*
X0116374Y0017346D02*
X0108129Y0017346D01*
X0107523Y0015748D02*
X0116374Y0015748D01*
X0117020Y0014149D02*
X0105951Y0014149D01*
X0163531Y0137235D02*
X0164252Y0137235D01*
X0164252Y0138833D02*
X0163226Y0138833D01*
X0162564Y0140432D02*
X0164252Y0140432D01*
X0164252Y0142030D02*
X0161299Y0142030D01*
X0159128Y0143629D02*
X0164733Y0143629D01*
D21*
X0133545Y0046180D03*
M02*
