%
M48
M72
T01C0.02362
T02C0.02756
T03C0.03200
T04C0.04000
T05C0.07874
T06C0.12598
%
T01
X133545Y46180
T02
X165080Y131802
X171380Y131802
X177679Y131802
X174529Y136920
X168230Y136920
T03
X163545Y106180
X173545Y106180
X183545Y106180
X193545Y106180
X203545Y106180
X213545Y106180
X223545Y106180
X153545Y106180
X143545Y106180
X133545Y106180
X123545Y106180
X113545Y106180
X103545Y106180
X93545Y106180
X83545Y106180
X73545Y106180
X63545Y106180
X53545Y106180
X43545Y106180
X33545Y106180
X33545Y46180
X43545Y46180
X53545Y46180
X63545Y46180
X73545Y46180
X83545Y46180
X93545Y46180
X103545Y46180
X113545Y46180
X123545Y46180
X133545Y46180
X143545Y46180
X153545Y46180
X163545Y46180
X173545Y46180
X183545Y46180
X193545Y46180
X203545Y46180
X213545Y46180
X223545Y46180
X221769Y22330
X211769Y22330
X191584Y21070
X191584Y31070
X173584Y21200
X153584Y21200
X136584Y26070
X136584Y16070
X120974Y16700
X120974Y26700
T04
X30324Y21550
X40324Y21550
X50324Y21550
X93529Y21125
X103529Y21125
X258250Y60196
X258250Y70196
X258250Y80196
X258250Y90196
X258250Y100196
X258250Y110196
X258250Y120196
X258250Y130196
X123899Y139901
X113899Y139901
X103899Y139901
X93899Y139901
X83899Y139901
X73899Y139901
X63899Y139901
X53899Y139901
T05
X155632Y136527
X155632Y155031
X187128Y155031
X187128Y136527
T06
X260084Y154255
X259584Y16755
X22584Y156755
M30
